<mxfile host="app.diagrams.net" modified="2023-12-11T02:05:02.579Z" agent="Mozilla/5.0 (Macintosh; Intel Mac OS X 10_15_7) AppleWebKit/605.1.15 (KHTML, like Gecko) Version/15.3 Safari/605.1.15" etag="mJYgyV_Wc33x5ghZekW9" version="22.1.7" type="github">
  <diagram name="Page-1" id="e3a06f82-3646-2815-327d-82caf3d4e204">
    <mxGraphModel dx="1207" dy="820" grid="1" gridSize="10" guides="1" tooltips="1" connect="1" arrows="1" fold="1" page="1" pageScale="1.5" pageWidth="1169" pageHeight="826" background="none" math="0" shadow="0">
      <root>
        <mxCell id="0" style=";html=1;" />
        <mxCell id="1" style=";html=1;" parent="0" />
        <mxCell id="xrYXjnT4yr6Y6m6NGFKG-4" value="" style="rounded=0;whiteSpace=wrap;html=1;dashed=1;" vertex="1" parent="1">
          <mxGeometry x="382" y="1350" width="678" height="610" as="geometry" />
        </mxCell>
        <mxCell id="6a7d8f32e03d9370-61" value="Outside Networks" style="whiteSpace=wrap;html=1;fillColor=#f8cecc;fontSize=14;strokeColor=none;verticalAlign=top;" parent="1" vertex="1">
          <mxGeometry x="1084" y="296" width="493" height="360" as="geometry" />
        </mxCell>
        <mxCell id="6a7d8f32e03d9370-60" value="Enterprise cloud" style="whiteSpace=wrap;html=1;fillColor=#d5e8d4;fontSize=14;strokeColor=none;verticalAlign=top;" parent="1" vertex="1">
          <mxGeometry x="937" y="764" width="602" height="374" as="geometry" />
        </mxCell>
        <mxCell id="6a7d8f32e03d9370-59" value="Citrix XenApp Server Farm&lt;div&gt;with firewalls&lt;/div&gt;" style="whiteSpace=wrap;html=1;fillColor=#EDEDED;fontSize=14;strokeColor=none;verticalAlign=top;" parent="1" vertex="1">
          <mxGeometry x="599" y="98" width="280" height="1010" as="geometry" />
        </mxCell>
        <mxCell id="6a7d8f32e03d9370-58" value="Residential Private Networks" style="whiteSpace=wrap;html=1;fillColor=#dae8fc;fontSize=14;strokeColor=none;verticalAlign=top;" parent="1" vertex="1">
          <mxGeometry x="177" y="863" width="310" height="318" as="geometry" />
        </mxCell>
        <mxCell id="6a7d8f32e03d9370-57" value="Enterprise Networks" style="whiteSpace=wrap;html=1;fillColor=#FFD470;gradientColor=none;fontSize=14;strokeColor=none;verticalAlign=top;" parent="1" vertex="1">
          <mxGeometry x="179" y="98" width="308" height="680" as="geometry" />
        </mxCell>
        <mxCell id="6a7d8f32e03d9370-36" style="edgeStyle=none;rounded=0;html=1;startSize=10;endSize=10;jettySize=auto;orthogonalLoop=1;fontSize=14;endArrow=none;endFill=0;strokeWidth=2;" parent="1" source="6a7d8f32e03d9370-1" target="6a7d8f32e03d9370-14" edge="1">
          <mxGeometry relative="1" as="geometry" />
        </mxCell>
        <mxCell id="6a7d8f32e03d9370-1" value="Client" style="verticalLabelPosition=bottom;aspect=fixed;html=1;verticalAlign=top;strokeColor=none;shape=mxgraph.citrix.laptop_2;fillColor=#66B2FF;gradientColor=#0066CC;fontSize=14;" parent="1" vertex="1">
          <mxGeometry x="350.4999999999999" y="927" width="116" height="86.5" as="geometry" />
        </mxCell>
        <mxCell id="6a7d8f32e03d9370-35" style="edgeStyle=none;rounded=0;html=1;startSize=10;endSize=10;jettySize=auto;orthogonalLoop=1;fontSize=14;endArrow=none;endFill=0;strokeWidth=2;" parent="1" source="6a7d8f32e03d9370-2" target="6a7d8f32e03d9370-9" edge="1">
          <mxGeometry relative="1" as="geometry" />
        </mxCell>
        <mxCell id="6a7d8f32e03d9370-2" value="Client" style="verticalLabelPosition=bottom;aspect=fixed;html=1;verticalAlign=top;strokeColor=none;shape=mxgraph.citrix.laptop_2;fillColor=#66B2FF;gradientColor=#0066CC;fontSize=14;" parent="1" vertex="1">
          <mxGeometry x="352.4999999999999" y="649" width="116" height="86.5" as="geometry" />
        </mxCell>
        <mxCell id="6a7d8f32e03d9370-34" style="edgeStyle=none;rounded=0;html=1;startSize=10;endSize=10;jettySize=auto;orthogonalLoop=1;fontSize=14;endArrow=none;endFill=0;strokeWidth=2;" parent="1" source="6a7d8f32e03d9370-3" target="6a7d8f32e03d9370-10" edge="1">
          <mxGeometry relative="1" as="geometry" />
        </mxCell>
        <mxCell id="6a7d8f32e03d9370-3" value="client" style="verticalLabelPosition=bottom;aspect=fixed;html=1;verticalAlign=top;strokeColor=none;shape=mxgraph.citrix.desktop;fillColor=#66B2FF;gradientColor=#0066CC;fontSize=14;" parent="1" vertex="1">
          <mxGeometry x="365.99999999999994" y="483.99999999999994" width="89" height="98" as="geometry" />
        </mxCell>
        <mxCell id="6a7d8f32e03d9370-33" style="edgeStyle=none;rounded=0;html=1;startSize=10;endSize=10;jettySize=auto;orthogonalLoop=1;fontSize=14;endArrow=none;endFill=0;strokeWidth=2;" parent="1" source="6a7d8f32e03d9370-4" target="6a7d8f32e03d9370-11" edge="1">
          <mxGeometry relative="1" as="geometry" />
        </mxCell>
        <mxCell id="6a7d8f32e03d9370-4" value="Client" style="verticalLabelPosition=bottom;aspect=fixed;html=1;verticalAlign=top;strokeColor=none;shape=mxgraph.citrix.desktop;fillColor=#66B2FF;gradientColor=#0066CC;fontSize=14;" parent="1" vertex="1">
          <mxGeometry x="365.99999999999994" y="320.00000000000006" width="89" height="98" as="geometry" />
        </mxCell>
        <mxCell id="6a7d8f32e03d9370-32" style="edgeStyle=none;rounded=0;html=1;startSize=10;endSize=10;jettySize=auto;orthogonalLoop=1;fontSize=14;endArrow=none;endFill=0;strokeWidth=2;" parent="1" source="6a7d8f32e03d9370-5" target="6a7d8f32e03d9370-12" edge="1">
          <mxGeometry relative="1" as="geometry" />
        </mxCell>
        <mxCell id="6a7d8f32e03d9370-5" value="Client" style="verticalLabelPosition=bottom;aspect=fixed;html=1;verticalAlign=top;strokeColor=none;shape=mxgraph.citrix.desktop;fillColor=#66B2FF;gradientColor=#0066CC;fontSize=14;" parent="1" vertex="1">
          <mxGeometry x="362.00000000000006" y="156.00000000000006" width="89" height="98" as="geometry" />
        </mxCell>
        <mxCell id="6a7d8f32e03d9370-37" style="edgeStyle=none;rounded=0;html=1;startSize=10;endSize=10;jettySize=auto;orthogonalLoop=1;fontSize=14;endArrow=none;endFill=0;strokeWidth=2;" parent="1" source="6a7d8f32e03d9370-6" target="6a7d8f32e03d9370-14" edge="1">
          <mxGeometry relative="1" as="geometry" />
        </mxCell>
        <mxCell id="6a7d8f32e03d9370-6" value="Client" style="verticalLabelPosition=bottom;aspect=fixed;html=1;verticalAlign=top;strokeColor=none;shape=mxgraph.citrix.pda;fillColor=#66B2FF;gradientColor=#0066CC;fontSize=14;" parent="1" vertex="1">
          <mxGeometry x="393.50000000000006" y="1065" width="30" height="61" as="geometry" />
        </mxCell>
        <mxCell id="6a7d8f32e03d9370-39" style="edgeStyle=none;rounded=0;html=1;startSize=10;endSize=10;jettySize=auto;orthogonalLoop=1;fontSize=14;endArrow=none;endFill=0;strokeWidth=2;" parent="1" source="6a7d8f32e03d9370-8" target="6a7d8f32e03d9370-21" edge="1">
          <mxGeometry relative="1" as="geometry">
            <mxPoint x="737" y="846" as="targetPoint" />
          </mxGeometry>
        </mxCell>
        <mxCell id="6a7d8f32e03d9370-8" value="" style="verticalLabelPosition=bottom;aspect=fixed;html=1;verticalAlign=top;strokeColor=none;shape=mxgraph.citrix.xenapp_server;fillColor=#66B2FF;gradientColor=#0066CC;fontSize=14;" parent="1" vertex="1">
          <mxGeometry x="636.9999999999999" y="813" width="76" height="89" as="geometry" />
        </mxCell>
        <mxCell id="6a7d8f32e03d9370-40" style="edgeStyle=none;rounded=0;html=1;startSize=10;endSize=10;jettySize=auto;orthogonalLoop=1;fontSize=14;endArrow=none;endFill=0;strokeWidth=2;" parent="1" source="6a7d8f32e03d9370-9" target="6a7d8f32e03d9370-20" edge="1">
          <mxGeometry relative="1" as="geometry" />
        </mxCell>
        <mxCell id="6a7d8f32e03d9370-9" value="" style="verticalLabelPosition=bottom;aspect=fixed;html=1;verticalAlign=top;strokeColor=none;shape=mxgraph.citrix.xenapp_server;fillColor=#66B2FF;gradientColor=#0066CC;fontSize=14;" parent="1" vertex="1">
          <mxGeometry x="637.0000000000001" y="649" width="76" height="89" as="geometry" />
        </mxCell>
        <mxCell id="6a7d8f32e03d9370-41" style="edgeStyle=none;rounded=0;html=1;startSize=10;endSize=10;jettySize=auto;orthogonalLoop=1;fontSize=14;endArrow=none;endFill=0;strokeWidth=2;" parent="1" source="6a7d8f32e03d9370-10" target="6a7d8f32e03d9370-19" edge="1">
          <mxGeometry relative="1" as="geometry" />
        </mxCell>
        <mxCell id="6a7d8f32e03d9370-10" value="" style="verticalLabelPosition=bottom;aspect=fixed;html=1;verticalAlign=top;strokeColor=none;shape=mxgraph.citrix.xenapp_server;fillColor=#66B2FF;gradientColor=#0066CC;fontSize=14;" parent="1" vertex="1">
          <mxGeometry x="636.9999999999999" y="484" width="76" height="89" as="geometry" />
        </mxCell>
        <mxCell id="6a7d8f32e03d9370-42" style="edgeStyle=none;rounded=0;html=1;startSize=10;endSize=10;jettySize=auto;orthogonalLoop=1;fontSize=14;endArrow=none;endFill=0;strokeWidth=2;" parent="1" source="6a7d8f32e03d9370-11" target="6a7d8f32e03d9370-18" edge="1">
          <mxGeometry relative="1" as="geometry" />
        </mxCell>
        <mxCell id="6a7d8f32e03d9370-11" value="" style="verticalLabelPosition=bottom;aspect=fixed;html=1;verticalAlign=top;strokeColor=none;shape=mxgraph.citrix.xenapp_server;fillColor=#66B2FF;gradientColor=#0066CC;fontSize=14;" parent="1" vertex="1">
          <mxGeometry x="636.9999999999999" y="320" width="76" height="89" as="geometry" />
        </mxCell>
        <mxCell id="6a7d8f32e03d9370-43" style="edgeStyle=none;rounded=0;html=1;startSize=10;endSize=10;jettySize=auto;orthogonalLoop=1;fontSize=14;endArrow=none;endFill=0;strokeWidth=2;" parent="1" source="6a7d8f32e03d9370-12" target="6a7d8f32e03d9370-17" edge="1">
          <mxGeometry relative="1" as="geometry" />
        </mxCell>
        <mxCell id="6a7d8f32e03d9370-12" value="" style="verticalLabelPosition=bottom;aspect=fixed;html=1;verticalAlign=top;strokeColor=none;shape=mxgraph.citrix.xenapp_server;fillColor=#66B2FF;gradientColor=#0066CC;fontSize=14;" parent="1" vertex="1">
          <mxGeometry x="637.0000000000001" y="156" width="76" height="89" as="geometry" />
        </mxCell>
        <mxCell id="6a7d8f32e03d9370-50" style="edgeStyle=none;rounded=0;html=1;startSize=10;endSize=10;jettySize=auto;orthogonalLoop=1;fontSize=14;endArrow=none;endFill=0;strokeWidth=2;" parent="1" source="6a7d8f32e03d9370-13" target="6a7d8f32e03d9370-16" edge="1">
          <mxGeometry relative="1" as="geometry" />
        </mxCell>
        <mxCell id="6a7d8f32e03d9370-51" style="edgeStyle=none;rounded=0;html=1;startSize=10;endSize=10;jettySize=auto;orthogonalLoop=1;fontSize=14;endArrow=none;endFill=0;strokeWidth=2;" parent="1" source="6a7d8f32e03d9370-13" target="6a7d8f32e03d9370-15" edge="1">
          <mxGeometry relative="1" as="geometry" />
        </mxCell>
        <mxCell id="6a7d8f32e03d9370-52" style="edgeStyle=none;rounded=0;html=1;startSize=10;endSize=10;jettySize=auto;orthogonalLoop=1;fontSize=14;endArrow=none;endFill=0;strokeWidth=2;" parent="1" source="6a7d8f32e03d9370-13" target="6a7d8f32e03d9370-26" edge="1">
          <mxGeometry relative="1" as="geometry" />
        </mxCell>
        <mxCell id="6a7d8f32e03d9370-56" style="edgeStyle=none;rounded=0;html=1;startSize=10;endSize=10;jettySize=auto;orthogonalLoop=1;fontSize=14;endArrow=none;endFill=0;strokeWidth=2;" parent="1" source="6a7d8f32e03d9370-13" target="6a7d8f32e03d9370-25" edge="1">
          <mxGeometry relative="1" as="geometry" />
        </mxCell>
        <mxCell id="6a7d8f32e03d9370-13" value="" style="verticalLabelPosition=bottom;aspect=fixed;html=1;verticalAlign=top;strokeColor=none;shape=mxgraph.citrix.router;fillColor=#66B2FF;gradientColor=#0066CC;fontSize=14;" parent="1" vertex="1">
          <mxGeometry x="973" y="587" width="55" height="36.5" as="geometry" />
        </mxCell>
        <mxCell id="6a7d8f32e03d9370-38" style="edgeStyle=none;rounded=0;html=1;startSize=10;endSize=10;jettySize=auto;orthogonalLoop=1;fontSize=14;endArrow=none;endFill=0;strokeWidth=2;" parent="1" source="6a7d8f32e03d9370-14" target="6a7d8f32e03d9370-8" edge="1">
          <mxGeometry relative="1" as="geometry" />
        </mxCell>
        <mxCell id="6a7d8f32e03d9370-14" value="" style="verticalLabelPosition=bottom;aspect=fixed;html=1;verticalAlign=top;strokeColor=none;shape=mxgraph.citrix.xenclient_synchronizer;fillColor=#CCCCCC;gradientColor=#000000;gradientDirection=south;fontSize=14;" parent="1" vertex="1">
          <mxGeometry x="636.9999999999999" y="976" width="76" height="91" as="geometry" />
        </mxCell>
        <mxCell id="6a7d8f32e03d9370-15" value="Web Server" style="verticalLabelPosition=top;aspect=fixed;html=1;verticalAlign=bottom;strokeColor=none;shape=mxgraph.citrix.cache_server;fillColor=#66B2FF;gradientColor=#0066CC;fontSize=14;labelPosition=center;align=center;" parent="1" vertex="1">
          <mxGeometry x="965" y="272" width="71" height="97.5" as="geometry" />
        </mxCell>
        <mxCell id="6a7d8f32e03d9370-16" value="DNS" style="verticalLabelPosition=bottom;aspect=fixed;html=1;verticalAlign=top;strokeColor=none;shape=mxgraph.citrix.chassis;fillColor=#66B2FF;gradientColor=#0066CC;fontSize=14;" parent="1" vertex="1">
          <mxGeometry x="1129" y="858" width="137.5" height="177.5" as="geometry" />
        </mxCell>
        <mxCell id="6a7d8f32e03d9370-44" style="edgeStyle=none;rounded=0;html=1;startSize=10;endSize=10;jettySize=auto;orthogonalLoop=1;fontSize=14;endArrow=none;endFill=0;strokeWidth=2;" parent="1" source="6a7d8f32e03d9370-17" target="6a7d8f32e03d9370-13" edge="1">
          <mxGeometry relative="1" as="geometry" />
        </mxCell>
        <mxCell id="6a7d8f32e03d9370-17" value="" style="verticalLabelPosition=bottom;aspect=fixed;html=1;verticalAlign=top;strokeColor=none;shape=mxgraph.citrix.firewall;fillColor=#66B2FF;gradientColor=#0066CC;fontSize=14;" parent="1" vertex="1">
          <mxGeometry x="759" y="156" width="75" height="93" as="geometry" />
        </mxCell>
        <mxCell id="6a7d8f32e03d9370-45" style="edgeStyle=none;rounded=0;html=1;startSize=10;endSize=10;jettySize=auto;orthogonalLoop=1;fontSize=14;endArrow=none;endFill=0;strokeWidth=2;" parent="1" source="6a7d8f32e03d9370-18" target="6a7d8f32e03d9370-13" edge="1">
          <mxGeometry relative="1" as="geometry" />
        </mxCell>
        <mxCell id="6a7d8f32e03d9370-18" value="" style="verticalLabelPosition=bottom;aspect=fixed;html=1;verticalAlign=top;strokeColor=none;shape=mxgraph.citrix.firewall;fillColor=#66B2FF;gradientColor=#0066CC;fontSize=14;" parent="1" vertex="1">
          <mxGeometry x="759" y="320" width="75" height="93" as="geometry" />
        </mxCell>
        <mxCell id="6a7d8f32e03d9370-46" style="edgeStyle=none;rounded=0;html=1;startSize=10;endSize=10;jettySize=auto;orthogonalLoop=1;fontSize=14;endArrow=none;endFill=0;strokeWidth=2;" parent="1" source="6a7d8f32e03d9370-19" target="6a7d8f32e03d9370-13" edge="1">
          <mxGeometry relative="1" as="geometry" />
        </mxCell>
        <mxCell id="6a7d8f32e03d9370-19" value="" style="verticalLabelPosition=bottom;aspect=fixed;html=1;verticalAlign=top;strokeColor=none;shape=mxgraph.citrix.firewall;fillColor=#66B2FF;gradientColor=#0066CC;fontSize=14;" parent="1" vertex="1">
          <mxGeometry x="759" y="484" width="75" height="93" as="geometry" />
        </mxCell>
        <mxCell id="6a7d8f32e03d9370-47" style="edgeStyle=none;rounded=0;html=1;startSize=10;endSize=10;jettySize=auto;orthogonalLoop=1;fontSize=14;endArrow=none;endFill=0;strokeWidth=2;" parent="1" source="6a7d8f32e03d9370-20" target="6a7d8f32e03d9370-13" edge="1">
          <mxGeometry relative="1" as="geometry" />
        </mxCell>
        <mxCell id="6a7d8f32e03d9370-20" value="" style="verticalLabelPosition=bottom;aspect=fixed;html=1;verticalAlign=top;strokeColor=none;shape=mxgraph.citrix.firewall;fillColor=#66B2FF;gradientColor=#0066CC;fontSize=14;" parent="1" vertex="1">
          <mxGeometry x="759" y="649" width="75" height="93" as="geometry" />
        </mxCell>
        <mxCell id="6a7d8f32e03d9370-48" style="edgeStyle=none;rounded=0;html=1;startSize=10;endSize=10;jettySize=auto;orthogonalLoop=1;fontSize=14;endArrow=none;endFill=0;strokeWidth=2;" parent="1" source="6a7d8f32e03d9370-21" target="6a7d8f32e03d9370-13" edge="1">
          <mxGeometry relative="1" as="geometry" />
        </mxCell>
        <mxCell id="6a7d8f32e03d9370-21" value="" style="verticalLabelPosition=bottom;aspect=fixed;html=1;verticalAlign=top;strokeColor=none;shape=mxgraph.citrix.firewall;fillColor=#66B2FF;gradientColor=#0066CC;fontSize=14;" parent="1" vertex="1">
          <mxGeometry x="759" y="813" width="75" height="93" as="geometry" />
        </mxCell>
        <mxCell id="6a7d8f32e03d9370-23" value="" style="verticalLabelPosition=bottom;aspect=fixed;html=1;verticalAlign=top;strokeColor=none;shape=mxgraph.citrix.home_office;fillColor=#66B2FF;gradientColor=#0066CC;fontSize=14;" parent="1" vertex="1">
          <mxGeometry x="207" y="955" width="80" height="55.5" as="geometry" />
        </mxCell>
        <mxCell id="6a7d8f32e03d9370-24" value="" style="verticalLabelPosition=bottom;aspect=fixed;html=1;verticalAlign=top;strokeColor=none;shape=mxgraph.citrix.hq_enterprise;fillColor=#66B2FF;gradientColor=#0066CC;fontSize=14;" parent="1" vertex="1">
          <mxGeometry x="227" y="252" width="92" height="88" as="geometry" />
        </mxCell>
        <mxCell id="6a7d8f32e03d9370-25" value="Secure Server" style="verticalLabelPosition=bottom;aspect=fixed;html=1;verticalAlign=top;strokeColor=none;shape=mxgraph.citrix.proxy_server;fillColor=#66B2FF;gradientColor=#0066CC;fontSize=14;" parent="1" vertex="1">
          <mxGeometry x="1409" y="800" width="76.5" height="90" as="geometry" />
        </mxCell>
        <mxCell id="6a7d8f32e03d9370-53" style="edgeStyle=none;rounded=0;html=1;startSize=10;endSize=10;jettySize=auto;orthogonalLoop=1;fontSize=14;endArrow=none;endFill=0;strokeWidth=2;" parent="1" source="6a7d8f32e03d9370-26" target="6a7d8f32e03d9370-29" edge="1">
          <mxGeometry relative="1" as="geometry" />
        </mxCell>
        <mxCell id="6a7d8f32e03d9370-54" style="edgeStyle=none;rounded=0;html=1;startSize=10;endSize=10;jettySize=auto;orthogonalLoop=1;fontSize=14;endArrow=none;endFill=0;strokeWidth=2;" parent="1" source="6a7d8f32e03d9370-26" target="6a7d8f32e03d9370-28" edge="1">
          <mxGeometry relative="1" as="geometry" />
        </mxCell>
        <mxCell id="6a7d8f32e03d9370-55" style="edgeStyle=none;rounded=0;html=1;startSize=10;endSize=10;jettySize=auto;orthogonalLoop=1;fontSize=14;endArrow=none;endFill=0;strokeWidth=2;" parent="1" source="6a7d8f32e03d9370-26" target="6a7d8f32e03d9370-27" edge="1">
          <mxGeometry relative="1" as="geometry" />
        </mxCell>
        <mxCell id="6a7d8f32e03d9370-26" value="" style="verticalLabelPosition=bottom;aspect=fixed;html=1;verticalAlign=top;strokeColor=none;shape=mxgraph.citrix.switch;fillColor=#66B2FF;gradientColor=#0066CC;fontSize=14;" parent="1" vertex="1">
          <mxGeometry x="1175" y="508" width="92" height="41.5" as="geometry" />
        </mxCell>
        <mxCell id="6a7d8f32e03d9370-27" value="Client" style="verticalLabelPosition=top;aspect=fixed;html=1;verticalAlign=bottom;strokeColor=none;shape=mxgraph.citrix.thin_client;fillColor=#66B2FF;gradientColor=#0066CC;fontSize=14;labelPosition=center;align=center;" parent="1" vertex="1">
          <mxGeometry x="1437" y="498" width="71" height="71" as="geometry" />
        </mxCell>
        <mxCell id="6a7d8f32e03d9370-28" value="Client" style="verticalLabelPosition=top;aspect=fixed;html=1;verticalAlign=bottom;strokeColor=none;shape=mxgraph.citrix.thin_client;fillColor=#66B2FF;gradientColor=#0066CC;fontSize=14;labelPosition=center;align=center;" parent="1" vertex="1">
          <mxGeometry x="1359" y="374" width="71" height="71" as="geometry" />
        </mxCell>
        <mxCell id="6a7d8f32e03d9370-29" value="Client" style="verticalLabelPosition=top;aspect=fixed;html=1;verticalAlign=bottom;strokeColor=none;shape=mxgraph.citrix.thin_client;fillColor=#66B2FF;gradientColor=#0066CC;fontSize=14;labelPosition=center;align=center;" parent="1" vertex="1">
          <mxGeometry x="1203" y="338" width="71" height="71" as="geometry" />
        </mxCell>
        <mxCell id="6a7d8f32e03d9370-49" style="edgeStyle=none;rounded=0;html=1;startSize=10;endSize=10;jettySize=auto;orthogonalLoop=1;fontSize=14;endArrow=none;endFill=0;strokeWidth=2;" parent="1" source="6a7d8f32e03d9370-30" target="6a7d8f32e03d9370-13" edge="1">
          <mxGeometry relative="1" as="geometry" />
        </mxCell>
        <mxCell id="6a7d8f32e03d9370-30" value="Web service" style="verticalLabelPosition=bottom;aspect=fixed;html=1;verticalAlign=top;strokeColor=none;shape=mxgraph.citrix.web_service;fillColor=#66B2FF;gradientColor=#0066CC;fontSize=14;" parent="1" vertex="1">
          <mxGeometry x="992" y="910" width="63" height="60" as="geometry" />
        </mxCell>
        <mxCell id="6a7d8f32e03d9370-31" value="" style="verticalLabelPosition=bottom;aspect=fixed;html=1;verticalAlign=top;strokeColor=none;shape=mxgraph.citrix.site;fillColor=#66B2FF;gradientColor=#0066CC;fontSize=14;" parent="1" vertex="1">
          <mxGeometry x="1409" y="995" width="107" height="101" as="geometry" />
        </mxCell>
        <mxCell id="6a7d8f32e03d9370-62" value="Citrix Network Architecture" style="text;strokeColor=none;fillColor=none;html=1;fontSize=24;fontStyle=1;verticalAlign=middle;align=center;" parent="1" vertex="1">
          <mxGeometry x="499" y="30" width="861" height="40" as="geometry" />
        </mxCell>
        <mxCell id="xrYXjnT4yr6Y6m6NGFKG-3" value="Gateway&lt;br&gt;10.13.242." style="text;html=1;strokeColor=none;fillColor=none;align=center;verticalAlign=middle;whiteSpace=wrap;rounded=0;" vertex="1" parent="1">
          <mxGeometry x="416" y="1438" width="60" height="30" as="geometry" />
        </mxCell>
        <mxCell id="xrYXjnT4yr6Y6m6NGFKG-5" value="Daocloud" style="text;html=1;strokeColor=none;fillColor=none;align=center;verticalAlign=middle;whiteSpace=wrap;rounded=0;" vertex="1" parent="1">
          <mxGeometry x="394" y="1360" width="60" height="30" as="geometry" />
        </mxCell>
        <mxCell id="xrYXjnT4yr6Y6m6NGFKG-7" value="Admin portal&lt;br&gt;10.13.242." style="verticalLabelPosition=top;aspect=fixed;html=1;verticalAlign=bottom;strokeColor=none;shape=mxgraph.citrix.cache_server;fillColor=#66B2FF;gradientColor=#0066CC;fontSize=14;labelPosition=center;align=center;" vertex="1" parent="1">
          <mxGeometry x="577" y="1443.25" width="57.35" height="78.75" as="geometry" />
        </mxCell>
        <mxCell id="xrYXjnT4yr6Y6m6NGFKG-8" value="Supplier portal&lt;br&gt;10.13.242." style="verticalLabelPosition=top;aspect=fixed;html=1;verticalAlign=bottom;strokeColor=none;shape=mxgraph.citrix.cache_server;fillColor=#66B2FF;gradientColor=#0066CC;fontSize=14;labelPosition=center;align=center;" vertex="1" parent="1">
          <mxGeometry x="577" y="1562" width="57.35" height="78.75" as="geometry" />
        </mxCell>
        <mxCell id="xrYXjnT4yr6Y6m6NGFKG-9" value="" style="endArrow=none;html=1;rounded=0;entryX=-0.029;entryY=0.482;entryDx=0;entryDy=0;entryPerimeter=0;exitX=1;exitY=0.5;exitDx=0;exitDy=0;exitPerimeter=0;dashed=1;" edge="1" parent="1" source="xrYXjnT4yr6Y6m6NGFKG-2" target="xrYXjnT4yr6Y6m6NGFKG-7">
          <mxGeometry width="50" height="50" relative="1" as="geometry">
            <mxPoint x="480" y="1510" as="sourcePoint" />
            <mxPoint x="530" y="1460" as="targetPoint" />
          </mxGeometry>
        </mxCell>
        <mxCell id="xrYXjnT4yr6Y6m6NGFKG-10" value="" style="endArrow=none;html=1;rounded=0;exitX=1;exitY=0.5;exitDx=0;exitDy=0;exitPerimeter=0;dashed=1;" edge="1" parent="1" source="xrYXjnT4yr6Y6m6NGFKG-2" target="xrYXjnT4yr6Y6m6NGFKG-8">
          <mxGeometry width="50" height="50" relative="1" as="geometry">
            <mxPoint x="480" y="1520" as="sourcePoint" />
            <mxPoint x="530" y="1470" as="targetPoint" />
          </mxGeometry>
        </mxCell>
        <mxCell id="xrYXjnT4yr6Y6m6NGFKG-11" value="" style="group" vertex="1" connectable="0" parent="1">
          <mxGeometry x="428" y="1490" width="48" height="80" as="geometry" />
        </mxCell>
        <mxCell id="xrYXjnT4yr6Y6m6NGFKG-1" value="" style="fontColor=#0066CC;verticalAlign=top;verticalLabelPosition=bottom;labelPosition=center;align=center;html=1;outlineConnect=0;fillColor=#CCCCCC;strokeColor=#6881B3;gradientColor=none;gradientDirection=north;strokeWidth=2;shape=mxgraph.networks.desktop_pc;" vertex="1" parent="xrYXjnT4yr6Y6m6NGFKG-11">
          <mxGeometry y="20" width="30" height="60" as="geometry" />
        </mxCell>
        <mxCell id="xrYXjnT4yr6Y6m6NGFKG-2" value="" style="fontColor=#0066CC;verticalAlign=top;verticalLabelPosition=bottom;labelPosition=center;align=center;html=1;outlineConnect=0;fillColor=#CCCCCC;strokeColor=#6881B3;gradientColor=none;gradientDirection=north;strokeWidth=2;shape=mxgraph.networks.desktop_pc;" vertex="1" parent="xrYXjnT4yr6Y6m6NGFKG-11">
          <mxGeometry x="18" width="30" height="60" as="geometry" />
        </mxCell>
        <mxCell id="xrYXjnT4yr6Y6m6NGFKG-12" value="" style="group" vertex="1" connectable="0" parent="1">
          <mxGeometry x="736" y="1490" width="48" height="80" as="geometry" />
        </mxCell>
        <mxCell id="xrYXjnT4yr6Y6m6NGFKG-13" value="" style="fontColor=#0066CC;verticalAlign=top;verticalLabelPosition=bottom;labelPosition=center;align=center;html=1;outlineConnect=0;fillColor=#CCCCCC;strokeColor=#6881B3;gradientColor=none;gradientDirection=north;strokeWidth=2;shape=mxgraph.networks.desktop_pc;" vertex="1" parent="xrYXjnT4yr6Y6m6NGFKG-12">
          <mxGeometry y="20" width="30" height="60" as="geometry" />
        </mxCell>
        <mxCell id="xrYXjnT4yr6Y6m6NGFKG-14" value="" style="fontColor=#0066CC;verticalAlign=top;verticalLabelPosition=bottom;labelPosition=center;align=center;html=1;outlineConnect=0;fillColor=#CCCCCC;strokeColor=#6881B3;gradientColor=none;gradientDirection=north;strokeWidth=2;shape=mxgraph.networks.desktop_pc;" vertex="1" parent="xrYXjnT4yr6Y6m6NGFKG-12">
          <mxGeometry x="18" width="30" height="60" as="geometry" />
        </mxCell>
        <mxCell id="xrYXjnT4yr6Y6m6NGFKG-16" value="MP(PHP)&lt;br&gt;10.13.242." style="text;html=1;strokeColor=none;fillColor=none;align=center;verticalAlign=middle;whiteSpace=wrap;rounded=0;" vertex="1" parent="1">
          <mxGeometry x="730" y="1438" width="60" height="30" as="geometry" />
        </mxCell>
        <mxCell id="xrYXjnT4yr6Y6m6NGFKG-17" value="" style="endArrow=none;html=1;rounded=0;exitX=0.976;exitY=0.422;exitDx=0;exitDy=0;exitPerimeter=0;dashed=1;" edge="1" parent="1" source="xrYXjnT4yr6Y6m6NGFKG-7">
          <mxGeometry width="50" height="50" relative="1" as="geometry">
            <mxPoint x="640" y="1480" as="sourcePoint" />
            <mxPoint x="740" y="1530" as="targetPoint" />
          </mxGeometry>
        </mxCell>
        <mxCell id="xrYXjnT4yr6Y6m6NGFKG-20" value="" style="endArrow=none;html=1;rounded=0;entryX=0;entryY=0.5;entryDx=0;entryDy=0;entryPerimeter=0;dashed=1;" edge="1" parent="1" target="xrYXjnT4yr6Y6m6NGFKG-13">
          <mxGeometry width="50" height="50" relative="1" as="geometry">
            <mxPoint x="630" y="1600" as="sourcePoint" />
            <mxPoint x="680" y="1550" as="targetPoint" />
          </mxGeometry>
        </mxCell>
        <mxCell id="xrYXjnT4yr6Y6m6NGFKG-21" value="" style="group" vertex="1" connectable="0" parent="1">
          <mxGeometry x="578" y="1712" width="48" height="80" as="geometry" />
        </mxCell>
        <mxCell id="xrYXjnT4yr6Y6m6NGFKG-22" value="" style="fontColor=#0066CC;verticalAlign=top;verticalLabelPosition=bottom;labelPosition=center;align=center;html=1;outlineConnect=0;fillColor=#CCCCCC;strokeColor=#6881B3;gradientColor=none;gradientDirection=north;strokeWidth=2;shape=mxgraph.networks.desktop_pc;" vertex="1" parent="xrYXjnT4yr6Y6m6NGFKG-21">
          <mxGeometry y="20" width="30" height="60" as="geometry" />
        </mxCell>
        <mxCell id="xrYXjnT4yr6Y6m6NGFKG-23" value="" style="fontColor=#0066CC;verticalAlign=top;verticalLabelPosition=bottom;labelPosition=center;align=center;html=1;outlineConnect=0;fillColor=#CCCCCC;strokeColor=#6881B3;gradientColor=none;gradientDirection=north;strokeWidth=2;shape=mxgraph.networks.desktop_pc;" vertex="1" parent="xrYXjnT4yr6Y6m6NGFKG-21">
          <mxGeometry x="18" width="30" height="60" as="geometry" />
        </mxCell>
        <mxCell id="xrYXjnT4yr6Y6m6NGFKG-24" value="mp-core(GO)&lt;br&gt;10.13.242." style="text;html=1;strokeColor=none;fillColor=none;align=center;verticalAlign=middle;whiteSpace=wrap;rounded=0;" vertex="1" parent="1">
          <mxGeometry x="560" y="1668" width="100" height="30" as="geometry" />
        </mxCell>
        <mxCell id="xrYXjnT4yr6Y6m6NGFKG-25" value="" style="endArrow=none;html=1;rounded=0;exitX=1;exitY=0.5;exitDx=0;exitDy=0;exitPerimeter=0;dashed=1;" edge="1" parent="1" source="xrYXjnT4yr6Y6m6NGFKG-2" target="xrYXjnT4yr6Y6m6NGFKG-22">
          <mxGeometry width="50" height="50" relative="1" as="geometry">
            <mxPoint x="480" y="1520" as="sourcePoint" />
            <mxPoint x="530" y="1480" as="targetPoint" />
          </mxGeometry>
        </mxCell>
        <mxCell id="xrYXjnT4yr6Y6m6NGFKG-26" value="" style="group" vertex="1" connectable="0" parent="1">
          <mxGeometry x="738" y="1692" width="48" height="80" as="geometry" />
        </mxCell>
        <mxCell id="xrYXjnT4yr6Y6m6NGFKG-27" value="" style="fontColor=#0066CC;verticalAlign=top;verticalLabelPosition=bottom;labelPosition=center;align=center;html=1;outlineConnect=0;fillColor=#CCCCCC;strokeColor=#6881B3;gradientColor=none;gradientDirection=north;strokeWidth=2;shape=mxgraph.networks.desktop_pc;" vertex="1" parent="xrYXjnT4yr6Y6m6NGFKG-26">
          <mxGeometry y="20" width="30" height="60" as="geometry" />
        </mxCell>
        <mxCell id="xrYXjnT4yr6Y6m6NGFKG-28" value="" style="fontColor=#0066CC;verticalAlign=top;verticalLabelPosition=bottom;labelPosition=center;align=center;html=1;outlineConnect=0;fillColor=#CCCCCC;strokeColor=#6881B3;gradientColor=none;gradientDirection=north;strokeWidth=2;shape=mxgraph.networks.desktop_pc;" vertex="1" parent="xrYXjnT4yr6Y6m6NGFKG-26">
          <mxGeometry x="18" width="30" height="60" as="geometry" />
        </mxCell>
        <mxCell id="xrYXjnT4yr6Y6m6NGFKG-29" value="mp-tools(GO)&lt;br&gt;10.13.242." style="text;html=1;strokeColor=none;fillColor=none;align=center;verticalAlign=middle;whiteSpace=wrap;rounded=0;" vertex="1" parent="1">
          <mxGeometry x="720" y="1648" width="100" height="30" as="geometry" />
        </mxCell>
        <mxCell id="xrYXjnT4yr6Y6m6NGFKG-30" value="" style="group" vertex="1" connectable="0" parent="1">
          <mxGeometry x="895" y="1470" width="48" height="80" as="geometry" />
        </mxCell>
        <mxCell id="xrYXjnT4yr6Y6m6NGFKG-31" value="" style="fontColor=#0066CC;verticalAlign=top;verticalLabelPosition=bottom;labelPosition=center;align=center;html=1;outlineConnect=0;fillColor=#CCCCCC;strokeColor=#6881B3;gradientColor=none;gradientDirection=north;strokeWidth=2;shape=mxgraph.networks.desktop_pc;" vertex="1" parent="xrYXjnT4yr6Y6m6NGFKG-30">
          <mxGeometry y="20" width="30" height="60" as="geometry" />
        </mxCell>
        <mxCell id="xrYXjnT4yr6Y6m6NGFKG-32" value="" style="fontColor=#0066CC;verticalAlign=top;verticalLabelPosition=bottom;labelPosition=center;align=center;html=1;outlineConnect=0;fillColor=#CCCCCC;strokeColor=#6881B3;gradientColor=none;gradientDirection=north;strokeWidth=2;shape=mxgraph.networks.desktop_pc;" vertex="1" parent="xrYXjnT4yr6Y6m6NGFKG-30">
          <mxGeometry x="18" width="30" height="60" as="geometry" />
        </mxCell>
        <mxCell id="xrYXjnT4yr6Y6m6NGFKG-33" value="mp-proxy(GO)&lt;br&gt;10.13.242." style="text;html=1;strokeColor=none;fillColor=none;align=center;verticalAlign=middle;whiteSpace=wrap;rounded=0;" vertex="1" parent="1">
          <mxGeometry x="877" y="1426" width="100" height="30" as="geometry" />
        </mxCell>
        <mxCell id="xrYXjnT4yr6Y6m6NGFKG-35" value="" style="endArrow=none;html=1;rounded=0;dashed=1;" edge="1" parent="1" target="xrYXjnT4yr6Y6m6NGFKG-31">
          <mxGeometry width="50" height="50" relative="1" as="geometry">
            <mxPoint x="780" y="1520" as="sourcePoint" />
            <mxPoint x="830" y="1470" as="targetPoint" />
          </mxGeometry>
        </mxCell>
        <mxCell id="xrYXjnT4yr6Y6m6NGFKG-36" value="" style="endArrow=none;html=1;rounded=0;exitX=1;exitY=0.5;exitDx=0;exitDy=0;exitPerimeter=0;dashed=1;" edge="1" parent="1" source="xrYXjnT4yr6Y6m6NGFKG-23" target="xrYXjnT4yr6Y6m6NGFKG-27">
          <mxGeometry width="50" height="50" relative="1" as="geometry">
            <mxPoint x="630" y="1740" as="sourcePoint" />
            <mxPoint x="680" y="1690" as="targetPoint" />
          </mxGeometry>
        </mxCell>
        <mxCell id="xrYXjnT4yr6Y6m6NGFKG-37" value="" style="endArrow=none;html=1;rounded=0;dashed=1;" edge="1" parent="1" target="xrYXjnT4yr6Y6m6NGFKG-31">
          <mxGeometry width="50" height="50" relative="1" as="geometry">
            <mxPoint x="780" y="1720" as="sourcePoint" />
            <mxPoint x="830" y="1670" as="targetPoint" />
          </mxGeometry>
        </mxCell>
        <mxCell id="xrYXjnT4yr6Y6m6NGFKG-47" style="edgeStyle=orthogonalEdgeStyle;rounded=0;orthogonalLoop=1;jettySize=auto;html=1;endArrow=none;endFill=0;dashed=1;" edge="1" parent="1" source="xrYXjnT4yr6Y6m6NGFKG-38" target="xrYXjnT4yr6Y6m6NGFKG-1">
          <mxGeometry relative="1" as="geometry" />
        </mxCell>
        <mxCell id="xrYXjnT4yr6Y6m6NGFKG-38" value="Admin/Supplier" style="shape=umlActor;verticalLabelPosition=bottom;verticalAlign=top;html=1;outlineConnect=0;" vertex="1" parent="1">
          <mxGeometry x="197" y="1510" width="30" height="60" as="geometry" />
        </mxCell>
        <mxCell id="xrYXjnT4yr6Y6m6NGFKG-46" style="rounded=0;orthogonalLoop=1;jettySize=auto;html=1;endArrow=none;endFill=0;dashed=1;" edge="1" parent="1" source="xrYXjnT4yr6Y6m6NGFKG-42" target="xrYXjnT4yr6Y6m6NGFKG-1">
          <mxGeometry relative="1" as="geometry" />
        </mxCell>
        <mxCell id="xrYXjnT4yr6Y6m6NGFKG-63" style="rounded=0;orthogonalLoop=1;jettySize=auto;html=1;entryX=0;entryY=0.5;entryDx=0;entryDy=0;dashed=1;" edge="1" parent="1" source="xrYXjnT4yr6Y6m6NGFKG-42" target="xrYXjnT4yr6Y6m6NGFKG-60">
          <mxGeometry relative="1" as="geometry" />
        </mxCell>
        <mxCell id="xrYXjnT4yr6Y6m6NGFKG-42" value="APP User" style="shape=umlActor;verticalLabelPosition=bottom;verticalAlign=top;html=1;outlineConnect=0;" vertex="1" parent="1">
          <mxGeometry x="197" y="1648" width="30" height="60" as="geometry" />
        </mxCell>
        <mxCell id="xrYXjnT4yr6Y6m6NGFKG-49" value="" style="group" vertex="1" connectable="0" parent="1">
          <mxGeometry x="458" y="1864" width="48" height="80" as="geometry" />
        </mxCell>
        <mxCell id="xrYXjnT4yr6Y6m6NGFKG-50" value="" style="fontColor=#0066CC;verticalAlign=top;verticalLabelPosition=bottom;labelPosition=center;align=center;html=1;outlineConnect=0;fillColor=#CCCCCC;strokeColor=#6881B3;gradientColor=none;gradientDirection=north;strokeWidth=2;shape=mxgraph.networks.desktop_pc;" vertex="1" parent="xrYXjnT4yr6Y6m6NGFKG-49">
          <mxGeometry y="20" width="30" height="60" as="geometry" />
        </mxCell>
        <mxCell id="xrYXjnT4yr6Y6m6NGFKG-51" value="" style="fontColor=#0066CC;verticalAlign=top;verticalLabelPosition=bottom;labelPosition=center;align=center;html=1;outlineConnect=0;fillColor=#CCCCCC;strokeColor=#6881B3;gradientColor=none;gradientDirection=north;strokeWidth=2;shape=mxgraph.networks.desktop_pc;" vertex="1" parent="xrYXjnT4yr6Y6m6NGFKG-49">
          <mxGeometry x="18" width="30" height="60" as="geometry" />
        </mxCell>
        <mxCell id="xrYXjnT4yr6Y6m6NGFKG-52" value="flink cluster(flink)&lt;br&gt;10.13.242." style="text;html=1;strokeColor=none;fillColor=none;align=center;verticalAlign=middle;whiteSpace=wrap;rounded=0;" vertex="1" parent="1">
          <mxGeometry x="440" y="1820" width="100" height="30" as="geometry" />
        </mxCell>
        <mxCell id="xrYXjnT4yr6Y6m6NGFKG-94" value="" style="group" vertex="1" connectable="0" parent="1">
          <mxGeometry x="740" y="1840" width="48" height="80" as="geometry" />
        </mxCell>
        <mxCell id="xrYXjnT4yr6Y6m6NGFKG-95" value="" style="fontColor=#0066CC;verticalAlign=top;verticalLabelPosition=bottom;labelPosition=center;align=center;html=1;outlineConnect=0;fillColor=#CCCCCC;strokeColor=#6881B3;gradientColor=none;gradientDirection=north;strokeWidth=2;shape=mxgraph.networks.desktop_pc;" vertex="1" parent="xrYXjnT4yr6Y6m6NGFKG-94">
          <mxGeometry y="20" width="30" height="60" as="geometry" />
        </mxCell>
        <mxCell id="xrYXjnT4yr6Y6m6NGFKG-96" value="" style="fontColor=#0066CC;verticalAlign=top;verticalLabelPosition=bottom;labelPosition=center;align=center;html=1;outlineConnect=0;fillColor=#CCCCCC;strokeColor=#6881B3;gradientColor=none;gradientDirection=north;strokeWidth=2;shape=mxgraph.networks.desktop_pc;" vertex="1" parent="xrYXjnT4yr6Y6m6NGFKG-94">
          <mxGeometry x="18" width="30" height="60" as="geometry" />
        </mxCell>
        <mxCell id="xrYXjnT4yr6Y6m6NGFKG-97" value="MySQL Router&lt;br&gt;10.13.169.&lt;br style=&quot;border-color: var(--border-color); text-align: left;&quot;&gt;&lt;span style=&quot;text-align: left;&quot;&gt;10.13.241.&lt;/span&gt;" style="text;html=1;strokeColor=none;fillColor=none;align=center;verticalAlign=middle;whiteSpace=wrap;rounded=0;fontStyle=0" vertex="1" parent="1">
          <mxGeometry x="690" y="1796" width="100" height="30" as="geometry" />
        </mxCell>
        <mxCell id="xrYXjnT4yr6Y6m6NGFKG-110" value="" style="group" vertex="1" connectable="0" parent="1">
          <mxGeometry x="382" y="2000" width="678" height="200" as="geometry" />
        </mxCell>
        <mxCell id="xrYXjnT4yr6Y6m6NGFKG-80" value="" style="rounded=0;whiteSpace=wrap;html=1;dashed=1;" vertex="1" parent="xrYXjnT4yr6Y6m6NGFKG-110">
          <mxGeometry width="678" height="200" as="geometry" />
        </mxCell>
        <mxCell id="xrYXjnT4yr6Y6m6NGFKG-83" value="" style="group;strokeColor=default;rounded=1;align=left;container=0;" vertex="1" connectable="0" parent="xrYXjnT4yr6Y6m6NGFKG-110">
          <mxGeometry x="238" y="34.78260869565217" width="190" height="130.43478260869566" as="geometry" />
        </mxCell>
        <mxCell id="xrYXjnT4yr6Y6m6NGFKG-90" value="" style="shape=image;verticalLabelPosition=bottom;labelBackgroundColor=default;verticalAlign=top;aspect=fixed;imageAspect=0;image=data:image/png,iVBORw0KGgoAAAANSUhEUgAAAHYAAACXCAYAAADAv682AAABRWlDQ1BJQ0MgUHJvZmlsZQAAKJFjYGASSSwoyGFhYGDIzSspCnJ3UoiIjFJgf87Aw8DNwMnAwcCUmFxc4BgQ4ANUwgCjUcG3awyMIPqyLsis6LWSu6vydQQXHuifrHdE/SKmehTAlZJanAyk/wBxWnJBUQkDA2MKkK1cXlIAYncA2SJFQEcB2XNA7HQIewOInQRhHwGrCQlyBrJvANkCyRmJQDMYXwDZOklI4ulIbKi9IMDj4urjoxBgZG5o6UHAuaSDktSKEhDtnF9QWZSZnlGi4AgMpVQFz7xkPR0FIwMjYwYGUJhDVH++AQ5LRjEOhFhKOwODsRZQkAshlvWEgWHPdAYGwVMIMfVsoLfsGBgORBYkFiXCHcD4jaU4zdgIwubezsDAOu3//8/hDAzsmgwMf6////97+///f5cxMDDfAur9BgDNp16WCyKIIwAAADhlWElmTU0AKgAAAAgAAYdpAAQAAAABAAAAGgAAAAAAAqACAAQAAAABAAAAdqADAAQAAAABAAAAlwAAAADAit9MAABAAElEQVR4Ae29aaxk13bft2oeb92689zzSLI5PT6ST49v0NNsSVBsw0GQOLaAyEY+5EOAwB+cD3EQJEASIPAHGzACGzIUQBDgSI4dO5IlvXki+cjHmT3Pd55vzXNVfv9dtS+LzWY1xcsOL5Fe3eeeU2fYZ5817bXXXnvtQAewj4EBl9wTtXrTwpGIhYJmLc60KanVbvM7aMGAWS1ftkA4aMlk3PSSaqttHc4HuV4qFu1upGrBaMQiAcrgX9sClNOyujU5blvQYm5f4UyxXrZSqWT5fN4K5ZLVazV7Y2/VVMcWpTfaLWvz7nqraa0O76EypXrtY76se1r1CAQCrj6hMDUIhTjW1j3/3PwZC4XDlorEbCiZtOFE2rLxtKUtYVELU6uaRahlnLrH+B2l2AhbkPoE2OK7BYvFYhaPcwc4EgjbtVrd6vW6DaWTFuBdwl2j07Jmo2EBricjUfDHA+BqEGxsbNjk5KRtb2/b0NCQRaNR293dtZGREcoZQL0Bl9z7Ks2WhflwEbHNmSaIFUkiwbCrk4hZqlYgeMfCsYi1uLHDZ/saJ7hL91c7oKhRt3KtarsQbmdv1woQ8U9W33eEa0CoZksf3rRas+E2EXF+dNzVo8X79S5BW3XpIWQz2Oye/Ji/IqqHgD6iD3Rt8laB2gYgW8ASEDzKdyXCUYuHIxYG8UdPnbAYRMjGkzYG0UdTQzaeGLJMLME9YSuGRGQYug2rQsgAzCbcJEVoyhQTB/iHGPC7hxUxJXjtIATReKyvRh89FA5a4CWXy9n4eBcXlUrFEgkwexDCtnqIEVKrVKhG5Z20wJ5hJKAYQO54ebFehbhUNJGyBiTYLe45qXu5ump7VGoLjtvO56zS1PMdq8O2YiqP+A5IlxQFkahANIxkwTi845XqdhcbIN1xF/fwkBlaQjBf+TCx3Mm+P9IsAr1LzNcRUnvHOh9BCoJNkAdDBZCmUB1CgPAwH6wn6xQfg8DpUMQRcyyespFUGslOWRLiP5+dh4gJG6GcoUACmZZekjRLRmFAmDQEsVVeAoJLM7gac67VbFoIbTYIamgt4VcgYupYOHPbQQhbpQJCaFdCAqgmEMTWcLzYsdudsqUCKdu1om1sbaEaq7axu22LKytWrpSt0qg6ZigjrQ2IGUSqg/GoBdirctt8cQvVWocra3yoJFcgyQ+yDTXcT/f+IPe32Tqh7oepTlcyXcJ177rPX4g4CL600ZV46R8xlqQ0AsNKXfMqK5UrUIc61SBCA+2FpFFzCNWT8ljKJifGbWFu3o5OzdpIJmNpJF7qW2XOBId4fdOCNCMJXhUPhCwC0+4D3zgIREjVS9CA8UTodDrtfh9IYou0FZImSUgYjhMayvzNl4uWLxXtZjaAKq7apWtX7O7du1ZsNbhWoq1t2PD4mL0ZKLpnm6itXERSB6KpoMEANEJ2uplwlXQEc8REarmvxccIsdcDcL4OPKgu+tk793x+MOGaMIsHrx3696+Ne1XYK0dEdMzFbzE1daSR7G4OwUEbdoTtlnphD2ZFwkX4OFUdTiRtYWrGTh87bjNT0zbB48Oo8fFI0oYgdRjm6MDEqkMQnOw3zL6SA/ZeetWeO213EImt8W0tGn0hWmq5hipd392yu0jk+uaG/ZvNq7S7LVRv3mJDaRuZm7adcsG29nKWHR+1pWbRmhCjipTviShIm/uYCMiizMc3qs4QE+PoY6XAZCjJQNM+jGoU7BNeFgrleMKrzR8EUukepIb7QcJcqVfcdwUjYatSboH6SSN1W3T2qGjaB+ospuTdIqKIXYc5ufZsdNRivCOB+ghCNCvVqHPD4p2gRaWqp4/YiZl5e+LYKTs2NG5hnm8jLI6wMUwx4WQASGIlqbJzdBzBkNVeRmagDGWplmP0EHWV0DhgX+VCo4plSaWGonFXebULLSoQ4sUiTDURtjWU8NvFdXtt5Ya9vrZol8o5PpKPRu876eF7A3DicKNt2IG0SViQVKassu8BqVSBjJloE44HYWEIpo9V/eAUZ0gJifoIQVdNogKlKtkcYrhfHz0IZAULxOF+82Xqd7PXVotxPJKl4ps9fNfC3QPZDc6A45mqkM1etsIIiFazEZBU90AM1OSayo/AmGF6FmPBqJ2fnrMvnTpv5yYWbARl3W43bK6ZRDWHHL5ca8vntkp1Z7Bhs1mbZ1V2tynkOyQYgHAYqOkNgE4JcdrL5Ba0dooWQtIcVDHRsVrDagNTiDt1fau5Zxfv3LSXr79n722t2jpWaHEkYQ26N5VoyApwX5oXJ9kSLYwGEB3kY2QwCIZHs9Cf7o3aWNSijj04Cd3OQ9SQxTHjE2ziSH1o1+Y2m12Yd7frQ0RcWj93zRPWtz++zHv3IqInaHff/a371F1aRusIZFjp3ioaqYpEqqtSQyIb8a7Ee0IH1f72uk0d6hngWN+Wo+3b49v1dVm+IY26jMDYGbpCrRKG5V7BwnQNRwJROzuzYE+fPW8njhy104EsNgrMAeNU9/LO+h6J04pD4FKubIl0t6lyldSfHmF16AjbpfMHhHUXwP0OZlBDHCiOhHvroE7n7lQ2bGVny268f8k2S3lbrxStlID7M0krc98yqnePbouNDtukVBFWo+y9EIQL0d50KNMTVwiVahUxRMQomiAW48OxCLOQSVIVj8YsARKisGnU9Xt7EtxTpeo6CDjrrFXHsdS/2vioRnA39v7IkuzxtSNk1zLucTX16tCeq16SCDGdCFvGYFKXogahclUsChhS75H20bGIoPtVh3wcQrOXHdLgnMqvUc4OzROc4lT2ESzmmVTG4jVwkC9ZuNq0UdrdIazrr8+dt2PzCzY9POpUeRJpGoXB1fJXig1LpD5sNVP8PgTqvS9zam7/dPcgiNFnhYLVoVlgfMjW2lX76c1L9trNy7a8t203gnAbXNmGc2tIsLo8IpK4Hbm2UiTgCBrDSlS3ISDCstc1EcNJllQt3BuDixPJhKWw6hI4A0TA8Q53Ckm0YyEO9Izq2ZUuukVIjldy0jL739DTCCLMIPB9V9VX4Mv1z6hO6lapm6WKwJLQo0XLBPn4Tr7eGtShVKtYuVi2Im1bGcNP3T5J+J1WxUK0z2F1W9QO8i0Vni9zfYemajIRBxc4OHh9UntoHVHzo/YYXJ1qp20sk7XzJ0/bU6fO2TRdpgDPRrgvK83pK8reN6E6JwLTLeunM5zZd/dNq0CYBJau2TvNFfvhtXftx4vX7N1qAds8aONtPEaoFhlADdRNvlKzUV46BccNJ1OWpzujTrnaaHUHQrSLMX2AOvg8d+rkyW77yEeHhQDOywMkgmtLV0CgqkcZYgqnOinDdeA5n0ql3Kf5pkNSIFLqGZ1rxT4wjtyND/jjCexvq2PRCyRxrk4QWIaUVHwHgks63XXeVxfB2zhQMI66zUrTLhe3nGSL8EUI0oTxO/TDI2gf9cdl3BXKZVsvlS3Kd03RFUpDbNkKginQXMsVbCI+ZC88dsGeow2eSQ3bEFZRSs4Sd5c0FYRk629KA+0eYVVFT9RudRFWXHJt2sr3lm7Zn7/+U3t7/a7lRhNWyMQwnGg3otwJAaAGrBa1k8GIJasQAO7tFKtW5XQMaZMqVoc9TWc9g8mfgejyvoxmR52RJETJCJBhIZUnb4qImG13Jc79pY0W0D9zxNOxJFngCes+jNtUjj401xlsPEVB8CBIgjyhR14vMYsIqXZTzYMkeRfniuoelgXLeR1DOne/6r8Zpv9NGysXaA4Xao59QUSWTUGZdzCQxlCtKWkGnq1jmJaQ5EZPgxzvxJ0URzGYMo2OnRmdthfOPmFPHT1tY3SR0qoPHyBNJuIKG3J26Fygg/km/63Q1u+aU0P/Q8vb2xhGr777lt3IbdpeNmE7U8NWED7oClgyY0aF8f+pn436jNuZYNyGUCfy0mzTzg6lkjYxPAIRszZMuzGENKdkCEHs8u6ekwRHWKSiH5w6l1rq0pOKSxVTYRhJx9oLeQJPUCdVvd86X32AxMqwGQTpUNQxiYgq54jwJLwI9K4GRNBeXbSO9oAI6+4VI6QhmOt306VDmndKBVvf3rI1tnyxZPFsxlnYkvZdDNMd+vfO+qZJCidi1twu2onhrI3SQHdWty2xW7Zz4zP24oVn7MLJM3YiSh+D90Zoe9VURaigWl3VxBHWVUiVZnME1gngD5ffse985zt2c33Zxs6dsPZU1n66sWyFDkbJ0VkIioGkYvQQHBWgO3OMzu0wBaVoUBIZ/KbDwzaFM0JthXNuQ3B1odoYH966FRHV3klqRWS/paiwUyhSvyBK0ko/QlVzxKyDLF+GpFaGigBl6fa7gcES6266548jVO9cpIJXCKJJOqV6nVbhFWInuUgluV4dO0nlO9Rb8JCjKXJER323ZXzCpWWIV0EyNWjx/q2bTqLLGgCg/BaSvyFOVhOAj93wPaPbbQJr+XQILbdTsqiIPTZlT505b7/1xJfAFUYnNIjgtVIzt09YENdpFhmlSMbs2t07FoB4HRzaP7r+pv3+lVdcn6uGSFTBXI6XbrOXL5evxM1Us/mhjOs7BmUY0QWolSqWRi1PT0/ZC3O0obqVTSrCbWAl3BU0XGkfqFUhQ/cJJIGCep/53j3z4b8qbxCUMd4OAnLzDYIGKsRLsJPm3ut0LBitQGiOJTDqErX5Ht3vz+0x+LG4tmpXVxZtGWlupLD8M2l3fx6bpZKBTHoAfI2jvaaRpzGUzBCbPFnfev5r9sLppwy9aVNiZxgxhZba2aKbyDka+wbEidnI9KTVGFF4bfWqvfHu21ZOyPfrtKzbR0Bklk0KLAcVZmnsoxC0AXcFIGqUbskE/tCJ0VFbOHrUMJodsaRCPbE4/BCo3rou8AjROYFXb91fH/0rK3UQCKEHAS+NH1dGs6chdN1pO973cTVSOyhtI40gqRYTZ7D+52dmLEi/P4nHbrNatCJdJhlrY+ByqdfUqPwKz9VBYp1naz2b8MrN65ZNpu25uVOubR7BIEOJMWyXwQDjIXmR6uqO0PndxYj/2aX37ObOum0fEy9wXSqGioSgMrTGGgvgE0VTIPoh+l/lKmoVFTqZRPVmh218bMxmxiesvbjVbRd7X+slsp+YKt8TUscOegRp9qk1f6l/75DVf+KeY3UvDgKSsEHgGcczpD7Tn/Pv1jc7xlVTouLYy6iRymyXG26oL4YdEkKg6sv40xkkES5jKWxeFdjDnXrkVfBR7BFVBL7O/RrvPTW7gGCpC4Q3r4xTKKXRYiCWiNo6Ft42HaTL+XW7QptqUyO2jCcpScFJ6XGIq4FkORoCcJ7UYBSOUrsWxhoepqM9NzVlGQykKIZRs4AJzz1eUu9FkYjp6eYl0yPIE7rlb1Al7wNitocJvh6D3uHrrKrcS1R/Tc+LwB80Hd2Kt9TNwa5ID8VtLI2mY5Oft4wGjcmWUAUcM3RV+bZjNKxuzqnPK465s7Vu19eX7Lnp47iOum0/O3DLDXpNBdO7wmjJDSR1pV6wWqbbSypwVR1xlSMVoXvlk2xzLINBEKMfmqULM4GBNMpYZAzpb+8W3YeojfXtrCeye6j3R0QVArTpOySlTSrc6HFm/733HguRg7Z7738Yv70Woir7TKzvFah/r0119EQWceVg0JahKQvK31trWAbVO0M0xCyabhiPWBDCTtGuqm31NkmJckTcHcR9W1I2nrHNRsXevnqFTknQygiaul6VEhq0TQGOSBoDRXI3ayUe7tid6h7OaVX3gwrX+NnoOb51fph+ZBMialBAJr6sURcmQgc6jJXm3Ya6937gJVXXRFCPAO97TT5AZDyy7lf2Z3HOt/0fW5a4vQeOMcFPF2MQEgJqEEVlBNDL+h2RFPZA51N0D1utGj3HGo4P2llcqfJ2tRlDKeJDmMDzVuPGCPTIQwsRtgSeSk6nm82hvltI+A0kdqWyY8lQxkZRzdVKXU4OhtvojwXpW8ooWkHHl5MRWyWc40yLfhznGnCJfJ3adtk0hCVQBEIIlo3R2e662Rit4AHFCcQhrjwx96PNfpeAi15S+4nqz3lOdS+7z58HtcGxD/B4n6cffEpSMwh8S+G0Dj+89HqGc65YCnCywLfKoSQHvlfJ6ofLGaMRIIX9VFsMMtCflctRXqoUz8hgFbalHUtSxfrRRb+T1gSFVzFgL1+7ZgvnnnHVTeDCdDFTzheLOt1t5G1xfc3adKxpNC2FhRWj8GjvAyWxVRUudmPLU1H9bskn6/p5tLdUROrFjUl2b3O3uzc+4I/Q6Imqvfqtg7ZeNXx1PrIXEg+yyTj7JJv7ZnAkRlSd9FtbA/xI+zim5dgxQN83KjpE4IYP6efKFak+rpo8FwQn3FNmlL2YVGXuA+WuwgTORYlD4+7iouvz44XFNYvGVEe7SdtKFxmjJ2Bz9Eur1RIOhortxlTNrqRSviX5EwPZIrBgCtVbx9kQQB1rtGOPbk8cEz6M27FZrtpEGUsbtaEBbXX0nVeF5zRWKYeD3iqVIAMsokNucY257tFh9/Uc3R8eJFHOmu/VVeX59tyX1i9hui5QHUSI7nH3oPfTSaS3E/Ssl8xuOV3PWPfJLkNlyi1wig9cLkjn40Yz4sQJgQvhZBuXp7pMoUzK4hhQ1cKOLe1s2y3azfGpcVtFRSfAk6RW2yzMw+NOc6r7k4SAu2x3qWB9b8d52uoIVVvv9BXxexFCW0/b+tP33bfwnkgda6S+wqjGJq4yfbhie+L0zQIVBgF65QkJbecHxhcKE9Q5TmLmC5xHSXsRl/sFqti+ynZnPt2ffgKohHt/+1LFQ564+gYRVzXpEg2p4pyOP8Rr/O4HaYd+kO9X6jYKh8oNKpy2KEChpnK5BodijDGHnDdqeWnT1jbX+Y0hiquwhkH1IGiAQwlFK9j1rXtjVij8EGFFBEGXGA8qFjWDtAdRIfrYIm6wldoGoR3ExlLOxNg4IxjqrXEfXSV1zqUdRDgNmGuo7r790D5kPfjTXPEP/OMIIqRKU/B+T1zPUCKhGM8RF+KIoURI8OXAE9Opdcrw9X6QAyOFS1WE1SCCc05IIyEIjLwYw6Xd4VAGWbZzO3bj1k1bYWybkRIiL2J2S1oTyRsE+h65XPUOaUAPIuP+k3yuO+98tlhxutjrzfj7P7LX+Gsci0ChK4ooaNU0wAdSGCuUpT0eG3Hjs/ATQ2299oT3BDREx3MamPZI0nMe0UKqQEbbQcCX46SPMlVcP3EdIXlB970fJq7e65Gj676ejkl6SHQ44j6vZTyh93+DgwYqWMF7QnwEA1UMrYrIP75GCFG7qkiNdaI3d+muEPQ2pHCYoGWor9cgqsv9IA4eFWKkfwGpuz4IO0r38Ccnt9uokJNeCDcIFLsjAyFARTWgLNKVqc5afs/yNOzZCTEogVt0ixS2GaILJJw0MRrkSVGYi3+FQ56Tph5VB734E14TEQSOgHxjv+R2r/Su8eMjxN0/p3u6CHJ17JXpyu7hTWWJqCKoa6N1AsgXIJw+GEJpxkMHm0UeIzduCxHv7G4yOF8m2iTnujXyPql5q+PNUzgRw7EDQcOgaq8jbUWaqCfL+3mfXumZ0hWgC04N9/YDS+WipFLE1VhiAOdzFOIqgmKXMUeNPb61V6IdTdno6IiNZ0eYJpFww3WSJKmPGm2wpMghXMhDXWv4SUjy0vagOgy6LryLDt3yKd6/Sxd657V3kux+u7v31fK+5PGNIq5++7pJde9f5y39Dn7fDZPmkoRqUL0FAYqE1uSISNnJETDPcOcORtIOv2UNxxhgj0F8eZ00AK8ui5xDg0DtsRsJw0XnBLHv5n3Ciqj9cO+N/df8sSorE1xyrZBP9XP5dn5ANLC5WNizJJXP0z/LQ+yxzLAbk1V0vOKQ23Cvml89IsmV5Lu9fruCODgguLIp417iujaVd/cTW8rMS65eK6PQAU2TtJHXKurC6PgDKeU650RQkUJaTBCkrZRBo4D4fK5kW0jwJkTdZSSnzOhNIx3DoY9RhQu2jRFV5+Pb4E5lu8gT//5ucR/525XObg9Dx3oXNXP37RPWP+Ul1v8etFcn2BFT5akBhxjqjAfhUP3TvJYm5vd6btdN40jxWz7lLF2qFN2iufGpbuCXngcZ6gc6SxhEqi30lRxUh09yTZ+q0vpBhBZIM4i47pg//S2VP4Z/u7BfL0m5JLhb3/2+KneJqCqPW624sWkV2te9IrHUEHSLQPpiB1sE/ETx8qnbGKVnwM4Rn66Cc786x484XqpkADSxikN8QAu3ozOgel8pmcCmpX2kjABfKgZRhYm6wXAJWiqMy4ubZSTJAta+CF/k2EuRj3C/LF0XGeTrwL5rJuH6ivMDFZ3C3Fd/TAMJsTaDxbsl6+wQs7R8C/WcsiyD8aMQO41LLYHPVEHWfqqDLEhVWvHEbVSWO1afkPLkfhPIN6vf7jv47UJjOFfbp4i77SN/pMY8UR2R3LMgqvctlV7/RYaeGF4ID7PXMa2mLeFTl6rVILzAhcHQZmomYUUepNVNh2qNysgVW6d70w7GIH6Q8W2zdTdezLeBlyFskARNm441Ti2rWbZJUN/OsUBdmxg9ihjSneSdCRrsDveozU4QjUH4AuUzwlPApeie+Jg/UpXc6wrkc9w/McIQWCirEt33fehpmOfDwG0ylKSj06o3DCQDIgJLu6hGpoIUCePcWF2DoLgiUV+Ku9XY7hjjuooOUIBbGGJH2cfCxAnwMUJuAZXmjD3eyU+YUi5OIZ62h3NNGGAQlJEgVVdlydsjI0d7/RZ0FNqia9RBRpDshwoRDU31TwnOWyvvdfvkuACrnK8jnRIAgZhD9JbUa5RKZ7VJw+maJnQ56DFk75fDdUh1EIHdt8BCMJhIIUakQk4z6lqCdlnaooNvWF4szcqQFyvMTIqBhHUfSFlSkW1qqb1CJdUWxqmQ4yZeKQkR6OPdOCN7QQlCCHMa4RAnJthJ/bif7DVLTXHLVbpKsDvtK515iJOEqAoS38FaVGS/pELhqFLt6gNrNMkRl6gPjTGpixaG2EJkhA8WAlT3BE70QRBGX0lS9bxUpyMuD/j2/frqkut6OOKiMTrUs0Z/Xd62Bu1mmT6o9lWMQDntxUgdyoxSRyFYnjxhQoSUY0IMLUyJqE6rifG4ISJccp6vEt34Jn5TJ2kICbVjWO4TMTucU/00O8FpLz5azK1jtc9uyo1GhChvIKgQnnNqOkahktgoROITXCC5Hu7yk+pI4VTSWZCOuK6WXOBFHBJngbqh4lSypucZKtS80yCBW7IgwQwWYouYKsIyiReKMSNPSNX9Xh1KFbphQPad4ZS7LqnW4LQIqvu6UotmIRhtEOSYQ+SNDnUzdKxRKmcU8Y17RBaobNVBiJfr1AWFq89OPSO8X0TrQOBIjMhg980QzuGmS0Tf/nqp1f37IIYGRCTN0hP+hGzHSNwn/4CCG4Q7GanuPOfaPeIWCkUG5InBVv0458qCwLKyBxJW3OVBhaoNE0QkckCRQgSy4roIEuG7xNX9Q/sFCDGqGTezcx/H9Q3CVIfg7jTSGBKBoSBKDs7Di0zZE3SVXLmUr8H9EOck1TonqOzhp6YcgT5LDOURoHOaDDUIFJesWxQE3uq9my9xhpv2BNG6xwnRdeOnKk1SHtRMBS4pjFSS6aZ2gFhVReE6sgvUzEgyPQq6aO/WRgEIYjmvbn0Ur9Dq1K9DlFQ57+Kc8B6kIEmxn5OskuTRivNST1ThRRotgWE2kLAegSpEhTuN2yOqzsnBINB9bgYAe4V9SGqlnod7x+4mkdYV0L2uc9P0a0UYfYycFpJWtVFhjIMg7eQmFqQQog+SSuqqKtoQ6qLnpPY47BKcPcHvTrpVH25ndkK3fhzeF3LlvCOsyhIBNHwmcJObeDTI2KYYSdIsNeekVyVL/Un1c17Q6EmepFPmqAiiKBJ5kgReINy3UOEo9RP4uGhHTCRVexFJperY3cNeR6GehewZWd+YIkZbTRTjrk4Va6BFQidGHUhYcZ9UQT9o5N9DHMLqBeJotU/S8+L07l8qx3mB7hG46Y7uuFtpzdER1ERwGSRgwHlSJAUYS4sV4pUFfFzGcS/NAJ8p40I0KDBnxrX/lCkSyurWuzwiI1LvA6AV7cqRCKomR8iUmpNNoOMwgxViUmkkN39JbZjQjKSoHkpHoG92SpR3620oFgdSrRqBUW9AoDfF+Ewxpe/FhLEZPKG01ybmECMLvK/c3cNz/l59o0pVfgzVT/XRG+QbKGPE3bl8bTBh5c8Uz3lEqe3yILWnn90KIbF8tH+xPkLtrmKiutDrl1IH1cNxNhcKeboLknqpN1VW7+MZSW5H0VlDKUvrfq65dpW9mEBjk/oUIVag+nVJJEOEOlGOoNG77n7c54+0hEBEK6ohZ19XnbuPG/GDMJG0B8zE5jQF10VM54CXwYeUyFrv0BDqa9VcaOC7iYWc6A176h2ql55XPb1waEqLB/VAHP56OHXnsXLvBSck3COCNjQPl8qG+I5QCK8e5MwTu/bmW28NJqysRYEnj9/rnJDhh6l0l9PzcHs/qAOtyjrEcEHqWl0FcZiupVHF/SBGUMWdWoc4yb3uoIIvQ/fq2Ner/1l/3CVP95dCYwfBB9OaAi6s9t57VQ+1+wK91x3p/b2tmexKjPqcsguc9PQKkVrM0ID7e9VdE46kphWArvNiEA+u0eAFam89ZyW4V7/F1F1mAOegWMaU0yhS3xSRwXDrbJVdj2QM1+3f+d3/bDBh/Us/7V6VVwU8IeB9OLwrZe7afdpAj5wOCJVaFujefvC/Hff2X7jn+EHX77n9Iz9Vd4GrE8STRrlfmaqPvtEZO4543X62+pkCPeM3/VZ7LfB4cT8+4z8D29iDvssT1X04Hy9iqXF3nAu3+vP+PTrv2mlYVIaWnwzVj0xPeD0jRA+CgyLOE9bv9xvHe17qv8NLpYuY4DtjRAyq7q5/yffq29zGOYGas4cFD5WwqrSQL4eGQAgQSBI90d2Jvj8dGhupQH22wBPSc7zaun1CeyvE3fnRP/59H73yyc94orm2FsZzTNlTpbrm69XPZGIoXaviyNivK6/0x/r+/vs/eW0++Z0PlbCeKFDqI2rHS5NHnKqsDxcT6Jo+PHKfGef+Pu317CCQM+Gg4OvnCaq9Np2X6lWdxYhO03DsieelVO/XvV7q/XerDfb3HrSO93v+oRLWv9ARuNcP8B+oa46APbXk7+3f3/vh+8/2COqR1P/Mh48P9nn77+sVKmZTn9YF4XFOk7VVx/2t1zSoXtr8QIYev/db7v3de8VntjvYlz+gGv0qx0uv9h5h6iLpGNR8SKK9mqo7c/6jkrkvqR8YlfetiSTqIOAZx9dHdfcE0d5Lnb+udzmi9hiv/92qs39W5/WML7//vs/q+KESVipLBpNDAkTwxPWV13n1B52q6iOSv0/Pe/DqrB8Z/Qj19/Xv++/tP/9Jj8V4As+IYtR9puK8G7LrEVuq+F4QY/r7ff11jyM+Ev0w4aEStv9j9TH3WoEakbkf3Hvf/e7RuYMS7uPK9edFyHuhX+oe1IYrdOXzgo/W/POqyaP3fqYYeETYzxSdh6ewR4Q9PLT4TGvyiLCfKToPT2GPCHt4aPGZ1uQRYT9TdB6ewh4R9vDQ4jOtyefX0foEn1Gmm6uxSA+eCzVgLVAeJg2yq6uv8Uqd194NvHMsB0eFAsqxoOWjhMxSnsaBNcapCIcUc2Q0gqTQTUX/KWV9m63IALfimWY7g9HT36d1FTpEfwbX/HOu6P2IqiopAkNE1N6FkvSdU4infy7OIECA8JsWN5dJRauUdsoTrIytTWYQK7Y5rgjJMItQMExYUD5iAr0VIuvckYPH6T9n7Ax+/aEmbDeaoPsBPpzGf45+13u195Lsr/l9iqiCGOEpyq+RJHpP0YQuxSw3VNrEAePyIyQY8WVBCQpRWI5Agesula2LJXKnvnB/DjVhveQJq76i/QQWMbxQ+XhdH2Gv+x5nEphmz7fJhJNAUrU1yfWoIL0w6drTpDzSNMYcsxE6CtskaZam/2vIrUMM8RcZPL4O5Tf4oC+HYojYHyasc/cjaj/hx0dGbWtxxSUTGyV9QozMZXtM6yigkhWgnhjLWIs5qUqD1CYrnZz9DVLkd9iU1IMotUOJl09SqUNdc09YJ41CNMRVhb1U+iEEH0Wp5Cf9UNtiaTASVc6OzNrjJ05bJj1EVpxVlxdpj2mdy6vrbhZCYjRjIQb1yySFbpCiN8kUCS2KxDyB/uK+UMeHmrAykERUEU7S6iXUY1hSBa27YZ3c46ZDaM8mGCd38tEj8/bk3HE7M71gw8we3JyYtytj03Zrc8VeLty1PHmXS+TiDyjaAhWcIMh9iJn3WRZZyLnMV92yvmh/DzVhfRvbr149gkVo5RPUPZ6gCsjWsSRZ57/5wi/YmewM8cEkdd7N0bWpMieXhNhHyK8/MYFFfMLeICHoxZs3yNJSdQv/pZnWGauw4oZWwRryOsG/9YuzP9SE3SB6Ezo5i1UolQRrc4si6EK+ZguTU0SeVyxZb1sawygJxV986ll78uQFm+aWMqo1SzuaHBm2vQIzSJlcHKft1AIftQTJT0JjpFJoW57cwTsYUeruuGVV7hMFoTp8UeBQE1aSeq+0irBqe7VlWdZEq081t3MkmJyzLz/1OKl1MzbO+SYLUlSYXq5+qxpmxcyHSfSsiHuXpp0Z5v/6j/+dPfXl5+xvfeU3bJu5gD94+2W7w1Jt5BigayTUuCndXxRafqieh5qwZTWgPVCfVkR1KQAhqtLQtXb2bGp23iaOjNlTCyfsqdkTLHPCylJ4lRo0tMPMqFe7nCPDWQlLOM7SL+tkavnxj35s7779tv3qb/yaTU2ymCB6QcHs33r8Wasg7ZduXXf32AnN2f9iwqEmrLd+vaNChFXbKaJKHTdyRTv+9Iw9O3/STiXGmbrPxGRS1sVGxmwYF+LF24u2cGwB3yPZupHQi6++bhffe89NYH7yhefst5/7inNHSprXSJ8fY1JTKDxswYW27Z3etB+2uitlfRFJ2ycTh6/6Iqg2WbkiqkDHMmnQ0jaGATTOCiHKXaEUHbJkJ1iRWXNGZdAOzU/bEgc/2rpl3775rv1g6apdL2xben7GfuVXf8vqtLmhqqZ7mh1LZGyKdYSitLUT4YRdOHNOr/vCwqGWWPVL1cZ6SfVWstSrzsux0MFpry5Rd14tUwlZd0+UVzLmHRbB+Mt3XrXvXnnb9mLk2Z8Zswm29NCE3a1s2gn2+a2CNckPnEqnbJ78+juUVUI1+z70F5Wyh5qwLj16j4gewSKiSykP0bfIIVUg1ZwSdkidKt9yVQk4WYBoZW3N/pfX/8zWObs9Hrd8Nsm6fDU7RxqiIZaWSWERyzTSEjJJntd80SpLn5SZoxlJh5wm4OwXFg41YWUoQb+u7u2hWP1XZynTiMgNqGXCN/K7LObXYbG/jHNk3F5bsTfeetOl3wlgMEVnMnarxZTMrT1bQHUHSUqyTd6zEmZTUIsQK8Ud2brSED2YYqgPkyu3iXX8BYZDTdgStZMaFiG3ONamjKSPIZqT0GOq1LQjpZZld3IMye1ZB0ls42C4zMI0r7L++8pxpJIpGSVWzjxLu0vmCMtfucGiUKS5e/oZq7AUSTzG4oGkJJjA25Rm6C6DdTxR79jZ6geTkg8rfcXkil2uskSpMuq0GXYcjtInAD+HmrByGcqTpAkBCYkuRNaCMUparfa2Te6HUUZwTibGrMPH5di2sIoDxYodGZ20a8vrNkRiK6UQ2ENth0gmkpgaI6lJyf7Dj39gJ5MTdnJmjg7xFItusqwJjfPxE8fJ6wBakOrDDnEcLwKln6/joKmRkqjeSbvVLA81YZO0e675g4hKI5SFuDKoOOz6g1mLVnmhJlHB0eiQxcj724LYY6NTNv802d4K63Zx5a69u7lkKRZajDEuu4mjv8bCRaNI9gYL/wZYmHfiZNRmZ4/CEFVWC7tt4TQqmVQ/hx1uL6/YzMQ4awey1hGMmME5o+y2GnY81ISVxLpMAVi56vaIqOruSFpF8DgZU5RBtZ6osrxJ3BayY5YgAWdc0y9RwWeCx+2VJEu6Mb/meqdoezj6S8rrwErJ0YkxC2xuuvR+WnfvyPC4VZN1u750hySWWrNPptjhhlPHjrjpm3sbuyzQTKY6Fmi26IibL3SoCev7rup6+K5OP6o7jKkGiHZo0TbKylJOjDBSHGEhKN3fYo2Cl44/YcHpEfuDl7/tFo2anR53hN5dWbPjpCt9nIXvzzP60yRtXoNB97PHT9tKp2w/u/h2/6sO5bEYtkaWGK03kB7K2khi2NaW1u07/+bfHW6JFTYdQRFPGQryRKm99JZxkXS5TbKihVm6VKCVlpt0d6Ks4hhkAnVF699yXitDa2XlGCtmxnKM4pDSby6atV/8EovdM5w3xrUwfagoDg45P+LkmFIux8MOFbSVn81XoYmpsEroifkp+3t///cOP2FFRE9IWcfatMiQ+q47rA1UJG2KMrJCSpdrKoGBFFS2LygaZGXH1+9etp9ceYvklmWbRuWmIdrR5JhdeOKMfSNzwmpkKo2WyR6K0z+VCmNYVa3UzNuIlvg85LBLysDpSVbWop2N7dRsc2PD7tQiNsq486FWxbSGDuSUkOSp5ROIuHJSRIlRKqN/9+p54tFClmG1qXAvKdje1q7dirGMJ07/1a1NBs3FzTN24ehJrOgRm2F57AbdgyFGckiL3fVw8MIRPFdDqLcKA/GHHUZYIFJ5E/foDYw3ozbJ2oJH1aljSPJQE7ZIV1KJnRUPrJDQaagrI0qQ59osC+b+8N2fW+XoGfv63JM4j0hgtbuOKg0xajNuf7Z30S7fuW7R9aL9pycft9+YecnmhkflZEI9Y4zx9dVmxdZwLwZkBZNwcgnHxc8XL9rF61dZVMq96tD+UfKwIglMpql3k70EocSyL1lSFh5qwkpKpYY9yCL2oPMaikNv2ivvvGErV2/aV85fsGenz7qPurS5aP/hrZftiVNH7Ou//Cv2THIeXjbbZNMS3G3S7RXWty0+lrVIZgKCVuytpXft4tJtBtzJsUiQ+RcZDjVhK9ROxBXIqBF4S1nHeyz4F2E0Rysn59fuQuO67dLuZuijbm+v29879iV7gnHaM/Rzg2skrWaFzDhr3LIWqusvFaYmbA2P8eXKhv1s/Za9s3rXtot5IijCrCVP1jjfFuhlXzA41IT1RBVO90d4esc61yZBVplx12FM/chQ2m7t5O32K9+3MRasn2TJzgsz06Svj9oW9yanh2yYTUJfLJJIcmkRAk/am6t37IfL1+zn5U1bwRDujBNGQ0BblNgZLZf9RYXDTVjUrbo7Iqp3LwrRUpIiehQP0e5e3koEno2xBExwkoV1t3aIPMxboRyxBRYpusuNnWHimohY3FG6Hq0tAAEDp2btf//zP2FOD4PspE0vDrE4coDWF6lXtKJe8KTLTqg3fvHgUBNWRJWxpFEeOSm8GpaVLHCBaeRmrOBNWmIRJ+XuTYwilRBmGbfhm3/xfaIRJ63z+BOWPH3WJSO5jYTeXLzjov/fL7EYA0up1ugeJLHSjlFmBWmtYXwp4fQXwPkkNNwXDjVhRVQ5/CWtiR5xXdcHwkpLagHcNIsjhvE7bpNmXhOvGiSmjGIttliMYfX5Y3aFvt5f3H7FwhtvWwgJryCKa9GKrYeb9g2Wh6mz5HiTSMZUIYD/GEcHGVnL3JPHwHKjDvdF2+E/eagJ69WwpFWbC4uB2N5hESaLd5708yXWFojQ/0ziA5Ynpl2uueG6FG0py0Owzi2z7Vj2tIBXqpxgtp1bQSFsS8zpydDqjtL3HWbKZIgOcjVfp8dbJ10sFjeM8EWFh0rYMuvMJIkriiJZbSzNHYZobrtM0aCLUZlf22NdcRwMO6QJz2H2apFhDc9pjfcI0xwTTJTS6hdFbffBcIs5rMpImgzF8BGTCIyofs2/6XaLova+XBr6QrYWKf9aWMzBasNGcGaM42PO8ew27eu7qIUmaeon4ZgMuadGaI+HA0m7y3CYMo8rMecYrq5Mrw1QvPM12gXlVy7HUdk9TxdT+OwUixCmKUdzc5tB6vc5wUMlrIwQjafK96o8xSk+lmX5eqniiVrAfaTmEhcu3RmlpOsm+ZL6lYRWerkJPw43PmOaTF2lf1cbLMe4lKjy9ydoKyXB2jpIrUtkSZla4UsLKN4g8iKLtM4j6VovXYu9BPE6tXArNtnLrSjXpQAeYJBBqeN5F3N7mqj/C6yKtM07ZaCpDqeh4wiCriF6aZvc59gVfqiEDSN5zqIFkcpX3wDBMxB7D+RqCE7X5QdIQQwRgmEZt4+IwGxljdoMAC2WKHC4p0y5Gp2BRXnKgC7Hfkhp6Xm/8jVKhYvAkNqll38Cw0oLIZUg5Faj4Ag7wpIuQwz7pRjAz+0ySQuKqhaqk2MQyqA4KBewKSIc5fQY7lUzBWGH4FI+00225tLnBg+VsFrsQctpR12jiPSCEAI4GDAnYAzs1EAaSrqbJkDYYNM/cAhilPZV8vHxoFU8pHb5z1MA5TqC9h7RoLvOacqGA5jKpwEUkSollmJDJaeJmBhORp3WCHFPo8RqmkzUiuJz7aBmGzyv+8RIYQgahQFH6TJFMbASqOdGT0VHxIg0LQ3ucYtI9erxeeweKmGFPCFey4UECN1wE8YZ4tdCQVqbbRvkgEcXPqq21PUwRCEYQGOrLvRwAFZUvnhGDKTbtfqFnnMTm/17dQ+Id/ciyVLV2vRb0i1G0l+pzi53iBfIysrmcjpyWcu2SfVqE9OJTRLcX8FeqPCBtR4WQ2rHOdboUxmTXs3J5wUPlbDKYiokC5ECxeYI825FDKS1QGOkdlXLa4JnJFrtnxArQqGmdXIAaEUrgUM2D2qZGBFXatzRibbdpRyAibp3qjyIiLYQYSeHcWhggOVZ1qzS6C4sMcTaeVqEIkEYTXsXNyTc1lQ9+afVRaQBWjLUIFoewpboi5X4FjFJiCFEvUlLh2rgwqtoV8n/j/88VMKqz6j17LQuXgRjRevliNRQ032mDJ4gXK4pG2q3woi0FhuWkSJR1pptg8CpXYpyChtCdcsXESiP33qN1rXVdTGX1gMS5yjPsKzWNUJjwkQoJugLp5j8LGgym71IHNQu6+qNxFMmf7WPlgxTV63tIw2h4zplqV0XSOKlnURgFJTmdX2u8FAJqzVsJE1yqmuBJKk2LXTokAzhkhBbzZI2IQo8gXoIwD1OivvWrbkflrQgBEYoVmgXu2rqZIR5a1kRF1o+1b2PexVC41SwYwIMHday1XtKklhWqBZojbwEbW4slmYiX4MYqQBjuaQOYksimVF+09yyBChSy7MiJDs3lygJQdULoHi0kyvuc/szWCQeUK2rNCJj0YRNbJbtOA7YEE6Cd+i7lcbTznuzMhyyN0ejtpIJ2XKo4aIdUiwiNN1hjk2lZa9NaW2akK2gBl9lPfc8A6RBCJ4fS1opRaBaJm5vVPK2SAzTXjbu9jnUXYiIPKn4XbxNk7gCbw9H7e0hwl6qaAOe/xnee6nXSK5gl4YClk+FbA8/8I0sanIkbkeISd5RIFu+4ub91MhNUWIYLzs6bArpXCWIfIlnEnRrNA0zhURrDb4sdR4mTHWE/Qhqvkrk4x7ernUGDE5mx+1HozUbRYSHmKv57ghuSfrvWgw5THdqD3FeZiHGIusOqe1NUVXhrwLj6bc0lzxeJRhGhuXEAf3UB5JYzZvZ0ug9/tk1ZovfYWxUhk95ZctO0xFIFYKWLjcsDYICtFn5JEQMt+yNaMMtXfbspT0c8qzwhGr7xmbQjtO5fzVct8tYUv/JOis+pps2izOfyarOgbAMIbR8eJWXlEDQqVTWsgUcC1slJK1DoDeBbXShnkKkTgfTzNrKuoXtZ3dBOB3Styk/whBfjdGg8pPnrfjGXTQFw/N4qkaYajnZImsMXaQ5GkitW5dDfUfpCiVRz7KsczBeEc9VBQ9WkSQl8wTkTA+N2BYTpiPXVpmEHbX/6slv2ValYNXLP7bN0bhbILhVJmkY9dZ69fJnV9EEdeb1vlSOMookQ02GGO0+zJWHIgXcoW4VrAdorEFydyDCNqjAMuOX2ZlZWywRjY80nSCu6ATrj39z+qT98txZm4wkbYqZbFtEKvz5rffs/7n1jo2yvFmMwO2RaMEuHD9tE428lde2MU5YWHeEcVAkpNHYtRyIqLG0F6smoE7blsKFGESi1CeuUd5mvEl/uJuePUMERByv0Q6LBSso7djUjP3eyFm7EijZOULBjydH7Z1w0a4sE2d854bd+vk1AuEIIAfRo50ki96TwIuyqjBrA2eFVnUM4tHKFKqWoPuTZyRiYzRpVSaCjVXDNk7DW8DwimazVqEu5XrZjkTG7KW5k7bOWux/9PoP7F0m20+gujNInxY3LsDAu9IkqPtMNmWrdMdShIZE1V7ToW+gORRvq0EMNREo9kG0G3jtQIQ9wiqIajs1EcpZn7QtcyzG+7XxGfvrs49ZODNiG3fu2E7ujo3OTNmTC8chPoRYvG5by1u2MpWx/3r+rM3kN+x/2l2xFnGx86FxOxaO2k8zTVsNMQ1Oq6TReE6iDCZA+jCEFYfHaJ/fJUxUi+/eUKOGcp6lK3WL5bUjqPuRY3N2tjFLu7plTbTKUm7ZIhMp+7VTT9mF9IStv/M9+0mEmCeejPINuzDPux3aWaWzJ/KRST12shWzcaQmTQvbwgK+TMPZxje9UOrYNNloXiFWeTXUsi2+aWo0YWtDYbvbLLvw1T3mC+0xJDgN86dlCECsnVDTFnFrTlL3caTzrXBBjTXXgi6hCZztnCQz9OG09u2WjL1PCQci7BhxucOoojwTkDNDcZuj8uH1XXvs1Dk7H8zYL2x+13JXr9rQdtlOlo5acnbCFus5W0UVd1iy+6lOys7WSB9QjdqX41nbSqNyy3VL8q2nIhnL7BRtLjtqWTxBASakKNwylyvZHpRVu3gukbanKwGbKBdslzZsXqnzEgzb0W5P4O5bT5TtX+Zu2msbN6zAOG18b9h+76mv2fPTU3amcc7+5do71tljohZ5RE7QVMyjIepoiwAEbO6V7OXmDgMGzApgOU/Jznk0UbzasuONsC2045YlUmOdunynXUB1s1gh9cujMXap606W2QXENcsGmMGkq6JqczDPBEbVDI6P8WLLfo0gdWmhKFK6R/u7jAG3i8+6ybkQWkPM+mnhQISVVymOWiyQZSVDqKe+vtOsWZoZbgHyPeRWc4SA0q6QM2mtXbX1i+/adqFg5yZm7LnHL9jfaczYkTTpAEDKP4y/aEsYSv/4zs8snK/a74VP2fhI1ubmiVVilGW1uGdvbi3a95i8vNbKW533/W5n2n5xfNw2WhXbGomifmftrZ1lu3H3tqXeR0K/fIRAtbz9nIlX7cmkpVgLfvH6TXsuG7SjGm0fjludXFBH2xl7afqczc7P2Uh62LK0icHVXftvCm/YJrbDKsudppC8s+GMPU2ui7MzCzbBpOvUesGuk6kzu/K+hdcWLYQV9GSUdeUb2A4w+AzG3HMnz9sT00ftZmXPlleuWhIt92R21r6VPWK/nlxwVvo284peyy/b9zZv2zvVbZgUt6vmahwADkTYHVRNq1oiLCXpvEfy7daxWK+Vtu3C+Lz946Gn7c7ekt0prsPZDRztGZvPJmyGGWGjxMGmjmVd1d366hg8nQTTIgl1CaAJRlHjqYUpfLX0Q5lENcyk5GfOPmbrqLM1iLtVYY4OM81eoI3OgYiX64Sp0V+q8nwJB4HGU0crIVvYadqX800bgvmTuISeJ+bpsfiordDWsWS1HaEuL9AcfPXck0yrbNkO0p8NpW16bs7+AcbUH0O0f128iork2fEj9ivHHrPgUMZu4wyNyWHBVM42Vq9coHK8hJC2FBIdxCJ+fnjOXpo9bUdGpm15iagOviON2n9+4oj9x/PP2tW9ddc925U1jEQ3khFsCVybeD9c//jTa2LKPQDk6Y4U1nbszMSUbUHg27SRgVDcfnLzki2kRuw/GjtttbHj9kZ9275bXLRLi5eZwrhpxxkb3aTtXF5u2v+Qfdbeu33F/knjhi3ip7tIGcdQfd/Jlu37O69Z/c66pddy9tK5C/bNZ1+y+YV5m1y6bZWVbbt7pGxFJjQvVXfsT99+HSbatu/HscJJpff8yXNIJF6kuUk7lgnbaLFh4wS+XTj3JSIVO/b7P3kdo61kR0JZO3nkqFO5f3Tpe/Z/vfeaTaAFvnTslP3TmV+0i6El+wka50hmlHOnbZ7JX/+WkNd/fv1VO9OmXYU5vxOv0m7TPFD/7XrRtlDF9clh+62nXiL9Ad29K1ftyrV3WHu+ZE+dPm0n0mOWxFJ/5v0/sXPkdBym66R1cTc7GI80KaMwxxjnNwjW+7RwIMJusPj7AmqyTkzrUXj6OEZLGa6/EqzaP7j4bXtjatF+9/QL9vxK0L4y+Zz93WeesP/xZ//e3g6W7FIlZ79o41Y6OWy3UF9LP37VpnYxvKYn7Eftov0EAyvK2Ok3Jo6RTa1hY0eOEIOUsMXbG/Y+3vnw2VkMtSHGYeu2TED41WbR1ukzNwlwu1AJ2pN3kMhwzf7h1JetinUaxVcdon/4OtGMv0/b+nK07trx5FrVnkhNElqzZddu37Tm1IitM/hwd2vD3pnP2W9mT9gfrr5v26jZr1eG7LXlm/ZPoisWnczaEjPnc6Tus7GYzWIX1OnP0w7Z7t0l+xexZ+wXAnP2z3besD+q37D2eNQWClxb37JLyQ375YWj9oOzvwmjkx8DFb0cYL15/AAJ5h41mZpSy8qR/mnJKkfNAeAF+pFN+mRaPrpEOyH10cai1BLTAboL31+9Ya+u3bazcOhvDT9pLyaP2l8//pTdeOvbdv34MN0I/LCsk17OsWF8beCjfa+WtyjhKr8y9pj97Seec3mbXq6sMfCOJUoX42/OPG5/vnPL3l7etOLYCNq0YblmldkACotBDaDGtmjnd+lSbdSK9vPbN+wd2t3HCUP96sRJd9/tpUVbnMSowRrNTk3SR43ZHWYMrNFNyTFpaw8rf2ftjsWY6T5LtOPUKgYiTBshWK5MjqJ3VzZtASnrzI5Yhdhk4nIgPEZXnKRCEOXE0JjNkf1tj+7QTHLYpm5W7e38pjXmxxgpCtoPVq/bEH3qvzZz1k6cfdG+efwx+xHNy/c2b9ndcJXoD8J30GxKo/Bp4UCETexRCdqHAn61ApEE3THQlqVI7BHDQs6xFPePggX7i4mEXXrrO/bPnv5t+7Xp0/YH9e/SRuatE11APaZspsPcVUz8TboWTaTqG50x+/tHn3eS/6eXXrY/LS2S7BJr9Pg3rUpUxjWk/SrSGEY641jGHfqiclvKSmVsxSpY3a3RtA0xVfJi6Yb98+V37NlAwRZo24bIgjqFpX2MKP+t22tWJ0MqnQ7nuI9iGY9jDI4jObER2msiIHcImSlv7jKnNmrFU3SzyPCWvaXoDrM3Cjv2ErPfrzAYmUuECJeimxUglCAYs6vtvF3BEHpp/KTVpoiW3Nuyn8nFRDhsdH3TanjFrm6v2remT9k3j5638DTdqZ01u0p/OEr6ogyGV2+F+k9F2wMRto4xUOVj2rEwxgPxvXiEjtD4HyfGd5Lwkrfv3qALw2K/pBOog5xdwkE7IxNuArLWo36ztG7/BYg8jZFyZLloISXawluzAJfLo/N/BK7bv1p7134+1LDzWKyVuaybLxukP2vHjlprXTO48SQRMhrg2TjOhEmcBXXle1IXAot3i7imG7gcY7U9u7x1214aPWIvzp+yn136MWkN4raFsbTc2LKZ0TF7jDjj4A2miOAGPIHlPj5/1JYLm26KJU5jgtGrDAwk7VfjzKUlPUKxcUjuCgAAFzpJREFUVbSXUsdIQ2T2o+VbFoWR1fXcxYr+p69+227AYC9+dcr+xsIF+8HmTfvZxhK2R4YEJyOGb8X+t9Ilu35tiz5tyrJzU8xISJGZdcVOwijH8I7d6KDmPyUciLABKhJgILqJaS4rUAFhZ7IT9qtHHrPnR07Yj8Kv2u+A9AQVX/gl5s2MHbH/c/F9uw2nvxA+imuRAW0k/omRGftbRy4QD9Wwn4aQZD4GGbHfyQ1ZJnTMvnF01E4QUXgukCHCf9PGF3P2GFZtbBLVxt0BJDYDwofx+peQfKnWINbqzLiMlLCdSmesxiyA115+2Z772oj9OjMEbuQ27d+WlmwdAl1bumNfPn7O/saTX7HVzTWcAzE7OzVvN4hpfGXpEu6+gKVRxe/fvekmdf2Xz/2SlXnua528/bpN2h8Xb9m169etnGHQjp5CaXrY3n2fObZ44370/pv2ty981X77ha/btTe/DY5C9tfOPm3jeOiq1Rv24krbpukr476yEO5FWfY52vgdumZ4YT4lWel5/qP/7h/99xpAljN6DzS9cfMKIWCkUkeiNKw2CLSSZF0+Tsz8AP28OD7VDIbcCARGjm2GLsPzU8fscbKdxQkL/XFl2f7w2mt2mzyHSkPwOoMDLxI0lmEgYXRhln7rqF3aXrGruS1ikRL2S/Gj9tzQtB2jL9skKDy8XbDLkap9L5pzTvWjkRR5hZOor5zdLO/aEEhzA++4/TSjbm540r5z/R3bqpcs1qGpIGtMFPU9jIOiA9L+/doN12URUyrlwdTYuJ3HFXpkjFhkvEB/cOOn9r2bF22PYHJhorC2YQk8QrNjUzaN3aDhvhiRkK+VN1z21NDkiD1NXoufBffse7klm6Ifnr+9hGpN2DDeuI3CltV3CnaU/Bjz9N9/MzRlX7NRGyt37K071+yVzTvW4F1BZhHu5nGNYqfIMaJ3Yyw70PdpxEwjWYrb0uIVabRemqbqa+eeshH87HFcloF2s9WpIHE7pGO5jU37L/7y/7bFDqGa+C5r9CEHQR1khxjPdH05Gvwwjoo4alBcOYS5HmW0RH3GLLFAV+jAv0K3Z30yRdqeBPM5i/Y6jPp3qxkbGxmhjRmzOFbmn925aK+VduxvDs3Z6bFpW2hEaGvL9vbOio0UGrY+lbKXh3hXvmYv0k99MgEzhCr2PQj7FfqpGjtdoy/79TZOEpjt7g6qdBQGmJt2yUiipNbLYOWFccJ/ewYDij7zSK5uY/JWIdmj2RE3eXrl7qKVcXm+hx87hKW8h5GU2MjZM6lxm8Z/nZ4YtQbqX4bfX8ZLNg9Dr2Ui9iuFhF0ZDdgP15bsabqB766u2NMZ5uOOzdgK1vtN7IMppqAcwV35q9mjzuBcw4B8N7dm12hVKyOp7oLDDHiU0RSKrZYLVc2zQLMPRVw3CRwcVzTbDg01vV2z//Z3/nM7UWcUCr/0gVTxKIZPnbc2cKBXeWEhTfIOOPoWL1YUxE6S5p8+5zPDEzj3m3aJUZPJdNxqOL2VVe0CDoYNkPNdEkIv1m+jXhk5GaL9HJ+2HRwL/3NqyR7bJu8SRKgRZHQMl9wibeJCMGFf3YvYd9N1RmZ27BJOL0ScyAbcCLT5ZSzipdUCTvuEzU0sWH03b29vrNr2jLxctMObJXseqduq5SyJwVUng9cO7sBLdN+a5TWLjQ1bZSFmM4xSrY8yGoObr8GolJ0cx46I2+VbK5ak3R+hb7xJkuRb42Gb3MVliEV8nXQH61jWj4+MMQ5ZturjR+wVXIt3bly0afrDl8/P2iWap6nb6/Yqs9CvKHePwlTn4PLQkC1Q70nKnaGNvXoAl+KBJNax0IA/GnT+/zPQmzoQSFg+rcQe8NUHqvejhx8iBh4R9iEi9/Ms+hFhP0/sP8R3PyLsQ0Tu51n0I8J+nth/iO9+RNiHiNzPs+hHhP08sf8Q3x0OECebYMgshROwivemQKRga3bULnN8Fr9VDdJrfmoOV4bSqjv/Vq9C5xny1GxzTXnV1EddFsj7JZdXVS6TR/CpMXCv1Mn7JHzLvSjUlsiGnsbrFMXjp4GRtWaJAQVS4/NGQt4ZmYEUCpvSEpwajK7iERkiWo8gPgcuTIMbGEpkFln3HHOVXRR899cHfz1Rtb7NIzgYBjTLoF82nH+Yc9oL6viJgziOY+R9DJE2MMZAheY88RSEJdqvTto2za+JQ30NWVVZyiTNoHIU15a8R7iSGTxHKinQOdlFPT1OoY57VBbgiSriy6epiUuP4NNjQETt994J9x4kbJq6opR7EQYZOrgpkV383EijUg9qpMBNVuIJsvi6WdyB5XV8oowSEJ2gkFgHSKwIK/DCyICJO/YjD+IkERXfvHNuu6zg3Uce/f0UGPCOfz3qZcQTV+7KCPHXxLu6wY4A0huHZsHenGKl2HcOe40GaHBqfnScyHWCpIkMEB3FNY5z2Es1aPO6XupYbasHqV8RVT5Owo4ewQExIDx/SBWD0wb41QxA50dmCFKzBhuMTWuyGME6bm0AbuE8hNJJEZWZL3aMyIEZZpol0dk1dKkiEepsGtBWW6xRG6kAbSKyiK9N0iqukopQ3oZNlf4IDoQB4dUbSirID9d5wakxv0izHjpI6whDjp02U16wkQjZUuxVHYJqhQsIS1TgsZFJhoxGLMrYaIXpE1ou228imI7VfupYL/VqWC92qrhHVFnTj+BgGBBuRVwPEhpHC/bSiPl80Y3dRojJnp6ethZrzkvzFsjBTDqjliMOo6AWIOJwnNksY6m0hRkwF/FEIMavjYlsbpO61Xm1zf1qQi8XR0lqlYL2ERwcA74JVElqU4VbtXwaZBeRN5nlF4KosoYVfaKoD0GZMeFwmElOOcI1lclsmJyDeaInXhg/auOFtr0XX7Mi81UqDIxHFV3HwHiNQXUn3UQFlphnwwQ7xxhSy4w9M6eUMFv2kupHcDAMJEYyBADuMQGbLK/kJI6Df2JwmPrZdtMxF0amrHxjxRYWTpEQ9KjNhdNW3M7bJIF54QgxS4lIggkLakNl+TK9gtCNxvyCte7ctFEKD8fjbtJQnlAYB3BIC+vLRb1CQCacPYKHgIHdnV2C8ojRIhy2jOOozgwKTSNJ0iVVHo0WRDwxO2+PHT9lGRZa1PKqSdGLuji5kp2jKf7MGHH7McIyTs0t2MkRLGR0QIiJwVq7PE5wVREG2CYBtBjBxd/wrNpWBNZt7Bzcq6b9+Uf7T46BBn1SWb3KfVCn/ZSRlIGoGYLVI2jL0Fbenpw9ao8tHLO4mlQ0pYgqQpAE4AMIMfM8gSmVwVExwiSoX3zsGRujv1u4sYQ/schMhoSNIa0FphkWxAYQVMRV31XEfQSfLQYUj9Wk3SwSv61J4UrzkCIiMckMhQRBeceYH/X41IIdQVajBJiHIa5TuyQWC9NrEUM40Y3zoKQXwludAl9IHLHG+Lo1N/ZsDcI2keoUM8JmCHtUgFkTV5YadEWpirHcD/1mE9f0M41OPYK/GgY0C75Cm6quZoLUgLR/1iAwTzPkZ5hG8s2TZ+0cUzKV7yZIEGGMYD+nNiEGAahdk1oEJZDUibKSU8WQ3jm232AG+O888xU7HRtmUjOuRqZvTGjlC+VR4FlnCWv/V6vzo7s/AQY0kVpSk2FmRZJY4wAd1Faxwsz+tD0LUV8487hbM0gBb8obuU8E9DFh4T2AG5pMZI4ollg3QrxJiDjLumnJY+dJ2oHDmeDpOyTOEExFk8YkOleYJFbdJXWFZCU/gs8GAy3m+IaIwQ6A4AYaNM70ygVm+Z1ZOGFnZ4/QLJKrAwGLgfgQsdwdRnkCmv6CcDMduQtaYaoOhzQwlEjRwhXyIoST1iE7WYaO64unn7TnHrtgKUS0RWqCKZJIqm31cG8b23fJ3/Jo/1fEQAz1K+OpSN6LPJkAknR5zp05Y6ePHnPDddKyBmEjypuBlGpWgPz38jGQBA0x/Tig8VUbXMFVVWVibo7EGDc3V+2Vi+/YJdalqc8yZQ1TvEa7u43jeIlp/XeZvKssLyh8e3FH7XXPBdlT10ps2YEDNS3EJ6zU670V3T+awXTZgaCxyUGgcWTvGRMS1NcW+HepGen/LWbsv0deHg96le6XwehhpDesqdt8mf3eogxaT9lfypxUxrm28ALUESJNPw0w+9+5ZiGBnpdbN4xQtZX9i1Gbp8sxq0PUOC8+MUl6h7OP2/mF4zaMcdthOk2crpDAVUnfJlK6iuLudVc+5o//hhjmtZiCNBjWnsOggjhjzPr+9iYpdegHlymliF95U7XTC1Q6/dwq47uquBCivcDPB5LB5hGr874izLRw4D70AYRT2zII/HURyyO+n3iii6edv6efsTxf+XrKGPTl6Nx+QDj11G9fluokAm8xZ1eLHrVxLDRo9FzOZJwLbjQNvBUZ904xdVMSpxS/HQwlaUtNANNEts2rd21+eoa1g87YmaPH7ejQeNc3DC5DGke9F6iDqwTvHiixHRJhCFyiSziuQyo6uSg0eWuPScUbxV178/L79sbVi6x/ToqAIzOWYE5LgZlimyzQu8UcVYGSkIiwgd7ecRbnw1h9/XAvHT1h+u/pP/ZI7j/XfyxnuUe2J5yue+J5wvjfuldleilX8+KJqrr5+/05L739Ut5fljKtNfG3O7csHL+N0z4tL54kE3xmyZwTRH2GWN0qjQ5N0SfRkjABmsMWS3l9deqEI+wpZr9PJbLOuI1CExlKyr4u4RAtHVBvkNw95h0DCRtwhOVzUQsVGvIWlWwxMC/fcZnf74fJ1sKkpZtMPby6ThIRpjjmcU+GcFNqdt0Go0JCllM3jou6v0VogZdeHXuieqTpnFyUg8AT7ePuUT098YVwTzh/v39XPzGFqH7C9lDVHb3qYdHXVRPAPKjsfubR+ZKyuIG7Fa3oxaQ12S2jSFqWvqhmxHV2SjZKopIsA+Mdpnk2N/fcjMFjJEQ7Ojtn32K6JfoORsSNC1cl+AIRVapZVXErU+tFHnp47QrRgDY2IJZUjfUljAKpvVQqAk2drIvQdJyVP1FTLhdz23b59g27ducWy2nv4Cmp2WvnmZgEeEQp66iSUMpxrTa2yD0CIViv0mv8sc7LOXIQkPOkX4L2iewZW9gBfP300x/r3n5/tx65V4IfRFim5jqB2KKdHUXCxol0SNPuRpBSLS0zxhCNJo+3CxXL0hhpeuVjtKFn547aJMlMkmDEZYKFYEkYIkXGOfU+hCitd+vbWJ0SiKDC3wMJ28J8DuPCctDjBiaSOqtL7c2u20pkSmEUH2eF1nXcwel4/dY1u3Pzlr2nVCNwWxOvidS5XhqggmGXoyJEyp6uSOq8c0+y7yfw8AMkth/x3Up+/N+HIbEa8BZ8nCrOuRFsmIUmR+7YBG2p1G6HqAdlMT+fmWPFkapb+vQU3Zfnzjxmp2hH5U+ooI5D9FliSrsLQSEXVhcLHkMHpQOUKnfQ24nx1HZLODRuPlAVV5jiGIEQyjXs8rQ6C4qSkATRObjHrGsm/yqXfwsWL9boLmE0KZdDlLmb/+ul77skkQWGl/bIOlbieo3rGvbDm03+QIKvOJYkiKDa1I55a/RBVq+eHQQq7+OQrueEBIGUkuBelaznPehdDmn+Zn+B/cdpBWk42RHqsqj5CdG0xTGekvQ5o+B0tp6wJ86dty+dehKJFYoZKmUZNy2XOkGaI71PVdAmK7pKpISO00zHDIHzfeCkCOtsod5+IGGbqEsn+rKhsNpcay2XBmXW4J4YRNdxi7ZUSlVS3OKfi5Tj/otkMs2xYtUqqXWWN9dtLbdLGtgiS3syY567auThV9Hqd0n6PHEV/vFJQJ6vB4H//P72zxPCG0P+t+7tV9f9GsET1TOT6qohSsG9z/lqBXEqRNB4YUZi2nyzDKNJIh1O0bNYwNp9KsYIGlgLI8VK6jeCQCg9ipz5hJthUcMaqFcxRgzD1YEoyNaC0CHSMTjghTotRhI+JbkDCatCBWoPPfQf77PU/sXuQfcpXg42hAhJqDzNu2REWSbJ1vr2lu2Seufnq4uun6fQm6YyxjAZukQjpwnEJYywLB+qOqgv6NoNecX4yAjdB9eNIEWQu06btR+2o3vojgkZascGQQQ3mb5nn5jUV0SSp0cetDoTuQNiaD5Ei0Bo0QolvY6hufRcnREWWfrOGOS+CNaoyhIT8UksMNyxLMmuZyen7ej0rM0wWjZGZjg58+XNVf5PjaoJuy6BNnu9XyTUOb1zIFBPz2jO/uFm4UH4/0SEVeGeoH6vc64Ed9D7Q21UqECc0yK3g3ydbdRRE4TLFirwt0D/ToTbg5Br62t2/c5tW9xatz3ONSCwYVUr3nmbZENqoxsQtiGrEmijwkXckAhMIskm5+XurNKVkCoSaBEk1TOtcgZAg/epTRFzKAG2CNhiC/BbsV2321ynHN0zhCU7CkGStG9J9lHshFmSs2ooTd4fETehXBDUaSjGoDiBZheOnGCJcKSQUTEtW5riWLkuNDleqWuz3CNwROSvJ2j3N/f0vvnjPkHMqy/ub1uFpb8SYVW4J6rf71PRXewWqEMRVRBm5Si9ViqtQyXkzJAMKTcUNjVEhuAUot81tl2ONkiGub6zZdu5HKnqLjuku7YDRItJtESKpFV1qCIhIsp+gB3XobiTVkmt8vsPggw5IPW8NtkQHaQOTt8/F2Uh+7asfwinBZY6bG3Uqwgd5JlZ8koowH6I/ugw7d40+R9nifKcIk3BUDDJYBoq0f3rk8K+CnkHiNcYnrC6xfHTAwjr1x3S/cK5CCp51fFAifUuP09Iv+c5B10lwqFYDFDB/gX6rbXCndEF0VxXQZILkVtIl6SwQrdHmWcafJkWZdCwoNpeljFCCEilhwuuArHzNVLFEsS+SwravQJZ3OgiyC0XpK8sonipdkSmLqqH6qru1SAokc9CBNK9mDiy59xez+jc8vo6WiGCsULWF/qboySdHiETTJokYHGaiSfrQ2TsoRvCcRpjUQlV1J3Bw+vKivUcPK4OfF+QF4AChyOd810rHUt13wvNB0Tci6n6wQuUzn0iwrobxUI9uJfAXs97NaDb9JIEWV4cID2Yh8Iab+ye0l5Xq3x8Dk9VQ0NSahtRn1E2tUEtrECBVKuTVu1BTgeLUuONt8hE00alKdKgxvNV2uYqx1oGRgs75FiJchAMZwkmoUwtDqGQIPWvwypbmoFzX2JYzEkzhaibIfDV13EdlSvzRZLnhzxDUhJIuNR6jNS+Du4xBp0eg6HC+p4BUH8AYVXn+4FKHUjYJpacQLpc0E9Qf/xxRNX9UZJSOcSpm+QHCHvf0sYn2iBhVRiplHEty1jMoI9WkFwFIjWz3RWaxQC6VkemG9whTSIp1YSkrrKXaofAusad0gIiSBAJGgRkhXKX9XViFG0yYgQ6TvWu6/e+dtKPHqTlKxSBKEZGlbowyv2/D76v1UdALdYkxlP9oork9+Co4YpzGken9U2DQHFPgn55UTMh+ESE1Y33I24/UfuPvVYh5Erf7dpAqR3HDJzQEKGGmFIE0em667/B4fpYxwi9djKwx+qSMJVzeCtCD+eIszBUIaCVY9kH7nVtjZhPfTt9a+9Le9/o7r3fn7qc7oC6O+7dOu7VV+2eiEuFPtjUhvcRiQFS97wooe6J2l9XTu/FFS3gB+gbZGlLG3iBEKOIIRxQrF5FMRCzu9d5123UwccAQzPuCjqsa9nzXhUlfjgwYX3dRFh/rAp2gS4HL9USaOKuGJvHu65rspcDHoSRnSQKMUKoYyRfkKtt34dzXhLuFF332xxiXFlcw6ZyjKv0d4PA9/F7xXdf4N/Jg1LvDiCmX9xJfV9vrXZ2Km60RaG5OH/3X0VaKCeVJVI3iTjyBwn5CswXMboBSPChIhP0cja91mss7fVb2BsEKk+gN6vbpXZae0nLQMK6pw7wx3PnAYr4XB8Vk32ecBD8/b+InuSAiu+nnwAAAABJRU5ErkJggg==;" vertex="1" parent="xrYXjnT4yr6Y6m6NGFKG-110">
          <mxGeometry x="514.8399999999999" y="70" width="61.15652173913043" height="78.26086956521739" as="geometry" />
        </mxCell>
        <mxCell id="xrYXjnT4yr6Y6m6NGFKG-100" value="Star Rocks&lt;br&gt;110.32.57.61 - 66" style="text;html=1;strokeColor=none;fillColor=none;align=left;verticalAlign=middle;whiteSpace=wrap;rounded=0;fontStyle=1" vertex="1" parent="xrYXjnT4yr6Y6m6NGFKG-110">
          <mxGeometry x="469.16999999999996" y="43.91304347826087" width="116" height="26.08695652173913" as="geometry" />
        </mxCell>
        <mxCell id="xrYXjnT4yr6Y6m6NGFKG-64" value="" style="outlineConnect=0;dashed=0;verticalLabelPosition=bottom;verticalAlign=top;align=center;html=1;shape=mxgraph.aws3.mysql_db_instance;fillColor=#2E73B8;gradientColor=none;" vertex="1" parent="xrYXjnT4yr6Y6m6NGFKG-110">
          <mxGeometry x="88.41683991683993" y="76.13272311212828" width="45.03118503118503" height="44.279176201373" as="geometry" />
        </mxCell>
        <mxCell id="xrYXjnT4yr6Y6m6NGFKG-65" value="" style="outlineConnect=0;dashed=0;verticalLabelPosition=bottom;verticalAlign=top;align=center;html=1;shape=mxgraph.aws3.mysql_db_instance;fillColor=#2E73B8;gradientColor=none;" vertex="1" parent="xrYXjnT4yr6Y6m6NGFKG-110">
          <mxGeometry x="133.4480249480249" y="113.29519450800905" width="45.03118503118503" height="44.279176201373" as="geometry" />
        </mxCell>
        <mxCell id="xrYXjnT4yr6Y6m6NGFKG-66" value="" style="outlineConnect=0;dashed=0;verticalLabelPosition=bottom;verticalAlign=top;align=center;html=1;shape=mxgraph.aws3.mysql_db_instance;fillColor=#2E73B8;gradientColor=none;" vertex="1" parent="xrYXjnT4yr6Y6m6NGFKG-110">
          <mxGeometry x="47.138253638253616" y="113.29519450800905" width="45.03118503118503" height="44.279176201373" as="geometry" />
        </mxCell>
        <mxCell id="xrYXjnT4yr6Y6m6NGFKG-92" value="MySQL&lt;br&gt;10.31.44." style="text;html=1;strokeColor=none;fillColor=none;align=left;verticalAlign=middle;whiteSpace=wrap;rounded=0;fontStyle=1" vertex="1" parent="xrYXjnT4yr6Y6m6NGFKG-110">
          <mxGeometry x="32.170000000000016" y="40" width="60" height="26.08695652173913" as="geometry" />
        </mxCell>
        <mxCell id="xrYXjnT4yr6Y6m6NGFKG-71" value="" style="image;sketch=0;aspect=fixed;html=1;points=[];align=center;fontSize=12;image=img/lib/mscae/Cache_Redis_Product.svg;" vertex="1" parent="xrYXjnT4yr6Y6m6NGFKG-110">
          <mxGeometry x="266.4407484407484" y="88.66773455377567" width="31.868882312770314" height="26.769861142727063" as="geometry" />
        </mxCell>
        <mxCell id="xrYXjnT4yr6Y6m6NGFKG-72" value="" style="image;sketch=0;aspect=fixed;html=1;points=[];align=center;fontSize=12;image=img/lib/mscae/Cache_Redis_Product.svg;" vertex="1" parent="xrYXjnT4yr6Y6m6NGFKG-110">
          <mxGeometry x="266.4407484407484" y="129.17116704805503" width="31.868882312770314" height="26.769861142727063" as="geometry" />
        </mxCell>
        <mxCell id="xrYXjnT4yr6Y6m6NGFKG-73" value="" style="image;sketch=0;aspect=fixed;html=1;points=[];align=center;fontSize=12;image=img/lib/mscae/Cache_Redis_Product.svg;" vertex="1" parent="xrYXjnT4yr6Y6m6NGFKG-110">
          <mxGeometry x="341.4927234927235" y="88.67093821510302" width="31.868882312770314" height="26.769861142727063" as="geometry" />
        </mxCell>
        <mxCell id="xrYXjnT4yr6Y6m6NGFKG-74" value="" style="image;sketch=0;aspect=fixed;html=1;points=[];align=center;fontSize=12;image=img/lib/mscae/Cache_Redis_Product.svg;" vertex="1" parent="xrYXjnT4yr6Y6m6NGFKG-110">
          <mxGeometry x="341.4927234927235" y="129.17437070938198" width="31.868882312770314" height="26.769861142727063" as="geometry" />
        </mxCell>
        <mxCell id="xrYXjnT4yr6Y6m6NGFKG-98" value="Redis Cluster&lt;br&gt;10.31.44. 159 - 164: 6370:6380" style="text;html=1;strokeColor=none;fillColor=none;align=left;verticalAlign=middle;whiteSpace=wrap;rounded=0;fontStyle=1" vertex="1" parent="xrYXjnT4yr6Y6m6NGFKG-110">
          <mxGeometry x="242" y="47.826086956521735" width="116" height="26.08695652173913" as="geometry" />
        </mxCell>
        <mxCell id="xrYXjnT4yr6Y6m6NGFKG-108" value="" style="group;strokeColor=default;rounded=1;align=left;container=0;" vertex="1" connectable="0" parent="xrYXjnT4yr6Y6m6NGFKG-110">
          <mxGeometry x="15.930000000000007" y="33.05217391304347" width="190" height="130.43478260869566" as="geometry" />
        </mxCell>
        <mxCell id="xrYXjnT4yr6Y6m6NGFKG-109" value="" style="group;strokeColor=default;rounded=1;align=left;container=0;" vertex="1" connectable="0" parent="xrYXjnT4yr6Y6m6NGFKG-110">
          <mxGeometry x="445" y="34.78260869565217" width="190" height="130.43478260869566" as="geometry" />
        </mxCell>
        <mxCell id="xrYXjnT4yr6Y6m6NGFKG-111" value="" style="group" vertex="1" connectable="0" parent="1">
          <mxGeometry x="290.5" y="1712" width="60" height="98" as="geometry" />
        </mxCell>
        <mxCell id="xrYXjnT4yr6Y6m6NGFKG-60" value="" style="editableCssRules=.*;html=1;shape=image;verticalLabelPosition=bottom;labelBackgroundColor=#ffffff;verticalAlign=top;aspect=fixed;imageAspect=0;image=data:image/svg+xml,PHN2ZyB4bWxucz0iaHR0cDovL3d3dy53My5vcmcvMjAwMC9zdmciIHhtbG5zOnY9Imh0dHBzOi8vdmVjdGEuaW8vbmFubyIgd2lkdGg9IjIwIiBoZWlnaHQ9IjIwIiB2aWV3Qm94PSIwIDAgMjAgMjAiPiYjeGE7CTxzdHlsZSB0eXBlPSJ0ZXh0L2NzcyI+JiN4YTsJLnN0MHtmaWxsOiM0Mjg1ZjQ7fSYjeGE7CS5zdDF7ZmlsbDojNjY5ZGY2O30mI3hhOwkuc3Qye2ZpbGw6I2FlY2JmYTt9JiN4YTsJPC9zdHlsZT4mI3hhOwk8cGF0aCBjbGFzcz0ic3QxIiBkPSJNMTMuMTMgNS42M1YzLjIxTDEwIDB2Mi40MXptMy43NSA3LjVMMjAgMTBoLTIuNWwtMy4xMiAzLjEzem0tMTMuNzUgMEwwIDEwaDIuNWwzLjEzIDMuMTN6bTEwIDEuMjV2Mi40MUwxMCAyMHYtMi40MXoiIGZpbGwtcnVsZT0iZXZlbm9kZCIvPiYjeGE7CTxwYXRoIGNsYXNzPSJzdDIiIGQ9Ik02Ljg4IDUuNjNMMTAgMi40MVYwTDYuODggMy4yMXpNMTcuNSAxMEgyMGwtMy4xMi0zLjEyaC0yLjV6bS0xNSAwSDBsMy4xMy0zLjEyaDIuNXptNC4zOCA0LjM4TDEwIDE3LjU5VjIwbC0zLjEyLTMuMjF6bTAtNy41aDYuMjV2Ni4yNUg2Ljg4eiIgZmlsbC1ydWxlPSJldmVub2RkIi8+JiN4YTsJPHBhdGggY2xhc3M9InN0MSIgZD0iTTYuODggMTMuMTNsNi4yNS02LjI1djYuMjV6IiBmaWxsLXJ1bGU9ImV2ZW5vZGQiLz4mI3hhOwk8cGF0aCBjbGFzcz0ic3QwIiBkPSJNMTAgMTBsMy4xMy0zLjEydjYuMjV6IiBmaWxsLXJ1bGU9ImV2ZW5vZGQiLz4mI3hhOzwvc3ZnPg==;" vertex="1" parent="xrYXjnT4yr6Y6m6NGFKG-111">
          <mxGeometry width="60" height="60" as="geometry" />
        </mxCell>
        <mxCell id="xrYXjnT4yr6Y6m6NGFKG-62" value="Akamai CDN" style="text;html=1;strokeColor=none;fillColor=none;align=center;verticalAlign=middle;whiteSpace=wrap;rounded=0;" vertex="1" parent="xrYXjnT4yr6Y6m6NGFKG-111">
          <mxGeometry y="68" width="60" height="30" as="geometry" />
        </mxCell>
      </root>
    </mxGraphModel>
  </diagram>
</mxfile>
